<svg xmlns="http://www.w3.org/2000/svg" xmlns:xlink="http://www.w3.org/1999/xlink" xml:space="preserve" width="500" height="450" viewBox="0 0 500 450">
  <defs>
    <path id="a" fill="#263238" fill-rule="nonzero" stroke="none" stroke-dasharray="none" stroke-dashoffset="0" stroke-linecap="butt" stroke-linejoin="miter" stroke-miterlimit="4" stroke-width="1" d="M-1.87 15.71h-13.77L1.87-15.71h13.77z" opacity="1" vector-effect="non-scaling-stroke"/>
    <path id="b" fill="#263238" fill-rule="nonzero" stroke="none" stroke-dasharray="none" stroke-dashoffset="0" stroke-linecap="butt" stroke-linejoin="miter" stroke-miterlimit="4" stroke-width="1" d="M-1.87 15.58h-13.77L1.87-15.58h13.77z" opacity="1" vector-effect="non-scaling-stroke"/>
    <path id="c" fill="#263238" fill-rule="nonzero" stroke="none" stroke-dasharray="none" stroke-dashoffset="0" stroke-linecap="butt" stroke-linejoin="miter" stroke-miterlimit="4" stroke-width="1" d="M-1.87 15.57h-13.77L1.87-15.57h13.77z" opacity="1" vector-effect="non-scaling-stroke"/>
    <path id="d" fill="#263238" fill-rule="nonzero" stroke="none" stroke-dasharray="none" stroke-dashoffset="0" stroke-linecap="butt" stroke-linejoin="miter" stroke-miterlimit="4" stroke-width="1" d="M-5.53-5.23 2.61 5.23l2.92-.44-8.59-10.02z" opacity="1" vector-effect="non-scaling-stroke"/>
    <path id="e" fill="#fff" fill-rule="nonzero" stroke="none" stroke-dasharray="none" stroke-dashoffset="0" stroke-linecap="butt" stroke-linejoin="miter" stroke-miterlimit="4" stroke-width="1" d="M-5.53-5.23 2.61 5.23l2.92-.44-8.59-10.02z" opacity=".1" vector-effect="non-scaling-stroke"/>
  </defs>
  <rect width="100%" height="100%" fill="transparent"/>
  <rect width="500" height=".25" x="-250" y="-.125" fill="#ebebeb" stroke="none" rx="0" ry="0" transform="matrix(1.23 0 0 1.23 239 381.922)" vector-effect="non-scaling-stroke"/>
  <rect width="33.122" height=".25" x="-16.561" y="-.125" fill="#ebebeb" stroke="none" rx="0" ry="0" transform="matrix(1.23 0 0 1.23 464.508 401.713)" vector-effect="non-scaling-stroke"/>
  <rect width="8.693" height=".25" x="-4.346" y="-.125" fill="#ebebeb" stroke="none" rx="0" ry="0" transform="matrix(1.23 0 0 1.23 333.55 405.058)" vector-effect="non-scaling-stroke"/>
  <rect width="19.192" height=".25" x="-9.596" y="-.125" fill="#ebebeb" stroke="none" rx="0" ry="0" transform="matrix(1.23 0 0 1.23 431.101 390.298)" vector-effect="non-scaling-stroke"/>
  <rect width="43.193" height=".25" x="-21.596" y="-.125" fill="#ebebeb" stroke="none" rx="0" ry="0" transform="matrix(1.23 0 0 1.23 22.594 392.365)" vector-effect="non-scaling-stroke"/>
  <rect width="6.333" height=".25" x="-3.167" y="-.125" fill="#ebebeb" stroke="none" rx="0" ry="0" transform="matrix(1.23 0 0 1.23 63.996 392.365)" vector-effect="non-scaling-stroke"/>
  <rect width="93.676" height=".25" x="-46.838" y="-.125" fill="#ebebeb" stroke="none" rx="0" ry="0" transform="matrix(1.23 0 0 1.23 150.821 397.555)" vector-effect="non-scaling-stroke"/>
  <path fill="#ebebeb" stroke="none" d="M223.027 326.904H-14.485a7.03 7.03 0 0 1-7.02-7.02V-13.979a7.03 7.03 0 0 1 7.02-7.02h237.512a7.03 7.03 0 0 1 7.02 7.02v333.861a7.03 7.03 0 0 1-7.02 7.021zM-14.485-20.69a6.72 6.72 0 0 0-6.713 6.713v333.862a6.72 6.72 0 0 0 6.713 6.713h237.512a6.72 6.72 0 0 0 6.712-6.713V-13.978a6.72 6.72 0 0 0-6.712-6.713H-14.485zm503.556 347.594h-237.51a7.028 7.028 0 0 1-7.02-7.02V-13.979a7.03 7.03 0 0 1 7.02-7.02h237.51a7.028 7.028 0 0 1 7.021 7.02v333.861a7.028 7.028 0 0 1-7.02 7.021zM251.561-20.69a6.72 6.72 0 0 0-6.712 6.713v333.862a6.72 6.72 0 0 0 6.712 6.713h237.51a6.72 6.72 0 0 0 6.714-6.713V-13.978a6.72 6.72 0 0 0-6.714-6.713h-237.51z" vector-effect="non-scaling-stroke"/>
  <path fill="#e0e0e0" stroke="none" d="M211.116 106.759v28.002l14.42 1.36c1.945 9.385 5.666 18.112 10.753 25.865l-9.262 11.187 19.802 19.803 11.188-9.263c7.751 5.088 16.48 8.809 25.866 10.755l1.358 14.419h28.003l1.36-14.42c9.385-1.948 18.115-5.666 25.865-10.754l11.188 9.263 19.803-19.803-9.262-11.188c5.087-7.752 8.807-16.479 10.754-25.865l14.42-1.359v-28.002l-14.42-1.36c-1.947-9.387-5.667-18.115-10.754-25.866l9.262-11.188-19.803-19.803-11.188 9.26c-7.75-5.084-16.48-8.805-25.866-10.752l-1.359-14.42h-28.003l-1.358 14.42c-9.386 1.946-18.115 5.666-25.866 10.752l-11.188-9.26-19.802 19.803 9.262 11.187c-5.087 7.751-8.808 16.48-10.754 25.866l-14.42 1.36zm88.127-23.91c20.938 0 37.911 16.973 37.911 37.91 0 20.938-16.973 37.91-37.911 37.91-20.937 0-37.911-16.973-37.911-37.91.001-20.937 16.974-37.91 37.91-37.91zM163.804 232.072l8.038 6.657 14.227-14.228-6.654-8.039a53.749 53.749 0 0 0 7.726-18.585l10.36-.975v-20.12l-10.36-.977a53.725 53.725 0 0 0-7.727-18.584l6.654-8.04-14.227-14.228-8.038 6.654a53.842 53.842 0 0 0-18.587-7.727l-.975-10.36-20.122.002-.974 10.358c-6.745 1.399-13.017 4.074-18.586 7.727l-8.039-6.654-14.227 14.228 6.656 8.04a53.731 53.731 0 0 0-7.728 18.584l-10.358.976v20.12l10.358.976a53.763 53.763 0 0 0 7.728 18.586l-6.656 8.038 14.227 14.228 8.039-6.657a53.776 53.776 0 0 0 18.586 7.729l.974 10.359h20.122l.975-10.362c6.747-1.397 13.017-4.071 18.588-7.726zm-56.86-45.232c0-15.042 12.194-27.237 27.238-27.237 15.042 0 27.238 12.195 27.238 27.237 0 15.043-12.195 27.239-27.238 27.239-15.044 0-27.238-12.196-27.238-27.239zm146.282 181.524c8.03-1.664 15.496-4.849 22.128-9.2l9.57 7.923 16.939-16.938-7.924-9.573c4.352-6.629 7.535-14.095 9.2-22.126l12.334-1.16v-23.956l-12.335-1.161c-1.664-8.031-4.848-15.496-9.199-22.127l7.924-9.57-16.94-16.938-9.57 7.922c-6.631-4.35-14.096-7.534-22.127-9.2l-1.16-12.334h-23.958l-1.16 12.335c-8.03 1.665-15.495 4.848-22.126 9.199l-9.57-7.922-16.94 16.938 7.921 9.57c-4.35 6.631-7.533 14.096-9.198 22.127l-12.334 1.16v23.956l12.334 1.161c1.665 8.031 4.847 15.497 9.198 22.128l-7.921 9.57 16.94 16.94 9.57-7.923c6.63 4.35 14.096 7.535 22.125 9.199l1.161 12.334h23.957l1.161-12.334zm-45.568-63.054c0-17.908 14.52-32.429 32.43-32.429s32.43 14.52 32.43 32.43-14.52 32.428-32.43 32.428-32.43-14.517-32.43-32.429z" vector-effect="non-scaling-stroke"/>
  <path fill="#f0f0f0" stroke="none" d="M425.409 171.23h26.454c2.556 0 4.152-2.767 2.875-4.981l-13.226-22.91c-1.278-2.213-4.472-2.213-5.75 0l-13.226 22.91c-1.28 2.214.318 4.98 2.873 4.98zm15.007-21.639-.585 11.413h-2.414l-.61-11.413h3.61zm-3.73 15.338c0-1.048.804-1.878 1.926-1.878 1.146 0 1.975.83 1.975 1.878s-.829 1.903-1.975 1.903c-1.122 0-1.926-.855-1.926-1.903zM38.446 67.9H64.9c2.556 0 4.152-2.766 2.875-4.98L54.55 40.01c-1.278-2.212-4.472-2.212-5.75 0L35.572 62.922c-1.278 2.212.318 4.979 2.874 4.979zm15.006-21.638-.585 11.414h-2.414l-.61-11.414h3.609zm-3.73 15.339c0-1.048.805-1.879 1.927-1.879 1.146 0 1.975.83 1.975 1.879 0 1.048-.829 1.901-1.975 1.901-1.123 0-1.926-.853-1.926-1.901zm59.694 288.176h26.453c2.556 0 4.153-2.766 2.876-4.98l-13.226-22.91c-1.278-2.213-4.472-2.213-5.75 0l-13.226 22.91c-1.28 2.214.317 4.98 2.873 4.98zm15.006-21.64-.586 11.414h-2.413l-.61-11.413h3.609zm-3.73 15.339c0-1.048.804-1.878 1.925-1.878 1.147 0 1.976.83 1.976 1.878s-.83 1.903-1.976 1.903c-1.121 0-1.926-.854-1.926-1.903zm236.398-26.847h26.453c2.556 0 4.153-2.766 2.876-4.98l-13.226-22.91c-1.278-2.213-4.472-2.213-5.75 0l-13.226 22.91c-1.28 2.214.318 4.98 2.873 4.98zm15.007-21.638-.585 11.413h-2.414l-.61-11.413h3.61zm-3.73 15.338c0-1.048.804-1.878 1.924-1.878 1.147 0 1.976.83 1.976 1.878s-.83 1.903-1.976 1.903c-1.121-.002-1.925-.855-1.925-1.903zm7.745-283.539h14.65a1.839 1.839 0 0 0 1.592-2.759l-7.325-12.686a1.839 1.839 0 0 0-3.184 0l-7.325 12.686a1.839 1.839 0 0 0 1.592 2.758zm8.31-11.984-.324 6.32h-1.337l-.338-6.32h1.999zm-2.066 8.494c0-.581.446-1.041 1.067-1.041.635 0 1.093.46 1.093 1.04s-.458 1.053-1.093 1.053a1.04 1.04 0 0 1-1.067-1.052zM10.767 220.758h14.65A1.839 1.839 0 0 0 27.01 218l-7.325-12.686a1.839 1.839 0 0 0-3.185 0L9.176 218a1.838 1.838 0 0 0 1.591 2.758zm8.31-11.983-.324 6.32h-1.337l-.339-6.32h2zm-2.065 8.494c0-.58.445-1.04 1.066-1.04.635 0 1.094.46 1.094 1.04s-.459 1.053-1.094 1.053a1.04 1.04 0 0 1-1.066-1.053zm274.238-90.245h14.648a1.839 1.839 0 0 0 1.593-2.757l-7.324-12.687a1.838 1.838 0 0 0-3.185 0l-7.324 12.687a1.838 1.838 0 0 0 1.591 2.757zm8.31-11.982-.326 6.32h-1.337l-.338-6.32h2zm-2.067 8.493c0-.58.445-1.04 1.066-1.04.635 0 1.094.46 1.094 1.04s-.46 1.053-1.094 1.053a1.04 1.04 0 0 1-1.066-1.053z" vector-effect="non-scaling-stroke"/>
  <rect width="30.937" height="20.448" x="-15.469" y="-10.224" fill="#e0e0e0" stroke="none" rx="0" ry="0" transform="matrix(1.23 0 0 1.23 152.383 32.639)" vector-effect="non-scaling-stroke"/>
  <rect width="31.004" height="3.356" x="-15.502" y="-1.678" fill="#f0f0f0" stroke="none" rx="0" ry="0" transform="matrix(1.23 0 0 1.23 152.433 22.123)" vector-effect="non-scaling-stroke"/>
  <rect width="30.937" height="20.448" x="-15.469" y="-10.224" fill="#e0e0e0" stroke="none" rx="0" ry="0" transform="matrix(1.23 0 0 1.23 69.223 125.91)" vector-effect="non-scaling-stroke"/>
  <rect width="31.004" height="3.356" x="-15.502" y="-1.678" fill="#f0f0f0" stroke="none" rx="0" ry="0" transform="matrix(1.23 0 0 1.23 69.26 115.393)" vector-effect="non-scaling-stroke"/>
  <rect width="30.937" height="20.448" x="-15.469" y="-10.224" fill="#e0e0e0" stroke="none" rx="0" ry="0" transform="matrix(1.23 0 0 1.23 63.959 304.936)" vector-effect="non-scaling-stroke"/>
  <rect width="31.004" height="3.356" x="-15.502" y="-1.678" fill="#f0f0f0" stroke="none" rx="0" ry="0" transform="matrix(1.23 0 0 1.23 63.996 294.432)" vector-effect="non-scaling-stroke"/>
  <rect width="30.937" height="20.448" x="-15.469" y="-10.224" fill="#e0e0e0" stroke="none" rx="0" ry="0" transform="matrix(1.23 0 0 1.23 356.97 240.115)" vector-effect="non-scaling-stroke"/>
  <rect width="31.004" height="3.356" x="-15.502" y="-1.678" fill="#f0f0f0" stroke="none" rx="0" ry="0" transform="matrix(1.23 0 0 1.23 357.006 229.611)" vector-effect="non-scaling-stroke"/>
  <rect width="30.937" height="20.448" x="-15.469" y="-10.224" fill="#e0e0e0" stroke="none" rx="0" ry="0" transform="matrix(1.23 0 0 1.23 440.376 272.76)" vector-effect="non-scaling-stroke"/>
  <rect width="31.004" height="3.356" x="-15.502" y="-1.678" fill="#f0f0f0" stroke="none" rx="0" ry="0" transform="matrix(1.23 0 0 1.23 440.413 262.243)" vector-effect="non-scaling-stroke"/>
  <rect width="30.937" height="20.448" x="-15.469" y="-10.224" fill="#e0e0e0" stroke="none" rx="0" ry="0" transform="matrix(1.23 0 0 1.23 426.378 84.828)" vector-effect="non-scaling-stroke"/>
  <rect width="31.004" height="3.356" x="-15.502" y="-1.678" fill="#f0f0f0" stroke="none" rx="0" ry="0" transform="matrix(1.23 0 0 1.23 426.415 74.324)" vector-effect="non-scaling-stroke"/>
  <ellipse fill="#f5f5f5" stroke="none" rx="193.889" ry="11.323" transform="matrix(1.23 0 0 1.23 239 423.385)" vector-effect="non-scaling-stroke"/>
  <path fill="#407bff" stroke="none" d="M194.087 58.308H158.75a10.88 10.88 0 0 0-10.88 10.88v30.753a10.882 10.882 0 0 0 10.88 10.88h6.625l-2.495 9.71 9.813-9.71h21.394a10.88 10.88 0 0 0 10.88-10.88V69.188a10.883 10.883 0 0 0-10.881-10.88z" vector-effect="non-scaling-stroke"/>
  <path fill="#fff" stroke="none" d="M194.087 58.308H158.75a10.88 10.88 0 0 0-10.88 10.88v30.753a10.882 10.882 0 0 0 10.88 10.88h6.625l-2.495 9.71 9.813-9.71h21.394a10.88 10.88 0 0 0 10.88-10.88V69.188a10.883 10.883 0 0 0-10.881-10.88z" opacity=".7" vector-effect="non-scaling-stroke"/>
  <circle r="13.797" fill="none" stroke="#407bff" stroke-miterlimit="10" stroke-width="2" transform="matrix(1.23 0 0 1.23 176.418 84.828)" vector-effect="non-scaling-stroke"/>
  <path fill="none" stroke="#407bff" stroke-linecap="round" stroke-linejoin="round" stroke-miterlimit="10" stroke-width="2" d="m168.275 84.84 5.35 5.806 10.935-11.587" vector-effect="non-scaling-stroke"/>
  <path fill="#e4897b" stroke="none" d="m132.371 417.285 8.561-.148 2.116-19.778-8.561.147z" vector-effect="non-scaling-stroke"/>
  <path stroke="none" d="m143.035 397.37-1.082 10.185-8.573.148 1.095-10.197z" opacity=".2" vector-effect="non-scaling-stroke"/>
  <path fill="#407bff" stroke="none" d="M152.429 325.982c.023 27.097-7.605 78.59-7.605 78.59l-14.321 2.222s-1.392-48.04-1.931-74.635c-.083-3.92-10.998-22.827-22.242-41.301a1908.415 1908.415 0 0 0-16.217-26.138c-4.867-7.71-8.19-12.87-8.19-12.87l33.988-12.719c.002 0 36.495 60.794 36.518 86.85z" vector-effect="non-scaling-stroke"/>
  <path fill="#263238" stroke="none" d="m146.824 405.403-17.245 1.094-.307-5.547 18.942-1.488z" vector-effect="non-scaling-stroke"/>
  <path fill="#407bff" stroke="none" d="M141.34 415.94a.204.204 0 0 1 .116-.204c.397-.187 3.904-1.822 4.924-1.202a.636.636 0 0 1 .312.548c.014.403-.128.73-.42.969-.972.797-3.411.382-4.778.064l-.026-.009a.197.197 0 0 1-.128-.166zm.843-.09c1.876.374 3.288.337 3.833-.11a.74.74 0 0 0 .27-.64c-.003-.106-.04-.17-.119-.22a.396.396 0 0 0-.073-.034c-.634-.244-2.528.404-3.911 1.004z" vector-effect="non-scaling-stroke"/>
  <path fill="#407bff" stroke="none" d="M141.418 416.091a.2.2 0 0 1-.076-.185c.013-.097.338-2.384 1.463-3.239a1.5 1.5 0 0 1 1.138-.31c.555.076.704.36.732.588.117.968-2.005 2.743-3.057 3.171a.204.204 0 0 1-.15.001.132.132 0 0 1-.05-.025zm2.467-3.333a1.09 1.09 0 0 0-.836.23c-.738.561-1.1 1.923-1.237 2.59 1.08-.597 2.53-2 2.46-2.58-.005-.036-.016-.128-.181-.19a.824.824 0 0 0-.206-.05z" vector-effect="non-scaling-stroke"/>
  <path fill="#263238" stroke="none" d="m140.675 414.916-9.343-.302a.755.755 0 0 0-.753.559l-2.002 7.515a1.23 1.23 0 0 0 1.168 1.555c3.373.051 8.252.012 12.488.149 4.954.16 8.105-.067 13.914.12 3.513.113 4.634-3.39 3.176-3.758-6.633-1.672-10.976-1.372-16.614-5.108-.613-.407-1.296-.707-2.034-.73z" vector-effect="non-scaling-stroke"/>
  <path stroke="none" d="M106.331 290.858a1908.415 1908.415 0 0 0-16.216-26.138c2.854-3.744 6.26-6.201 6.26-6.201s9.92 17.316 9.956 32.339z" opacity=".2" vector-effect="non-scaling-stroke"/>
  <path fill="#e4897b" stroke="none" d="m35.804 416.251 8.266 2.239 7.552-18.4-8.266-2.24z" vector-effect="non-scaling-stroke"/>
  <path stroke="none" d="m51.61 400.102-3.887 9.483-8.266-2.251 3.887-9.483z" opacity=".2" vector-effect="non-scaling-stroke"/>
  <path fill="#407bff" stroke="none" d="m116.776 231.796-.694 11.893-20.614 16.453s-1.414 55.349-7.277 67.473-34.078 75.648-34.078 75.648l-15.43-4.721s24.514-74.666 26.983-79.077c2.469-4.41-10.514-68.799 6.878-99.239l44.232 11.57z" vector-effect="non-scaling-stroke"/>
  <path fill="#dc897c" stroke="none" d="M142.2 178.729a401.906 401.906 0 0 1 2.244 16.645c.62 5.576 1.185 11.137 1.563 16.828l.228 3.69c.087.85.307 1.74.65 2.655.692 1.824 1.892 3.744 3.43 5.561 1.519 1.837 3.357 3.576 5.33 5.231.998.813 2.008 1.645 3.066 2.42 1.038.76 2.191 1.541 3.17 2.204l-2.515 5.899a40.809 40.809 0 0 1-4.298-1.555c-1.376-.584-2.752-1.198-4.08-1.922-2.673-1.422-5.265-3.115-7.696-5.22-2.414-2.101-4.712-4.634-6.419-7.854-.852-1.599-1.58-3.359-1.985-5.256-.124-.465-.18-.953-.267-1.431l-.175-1.18-.284-2.004-2.49-16.382a707.282 707.282 0 0 1-2.292-16.503l12.82-1.826z" vector-effect="non-scaling-stroke"/>
  <path fill="#407bff" stroke="none" d="M124.307 163.537c-4.792 6.64 3.425 32.031 3.425 32.031l18.974-4.62s-.912-11.832-4.313-21.781c-3.49-10.214-12.827-12.918-18.086-5.63z" vector-effect="non-scaling-stroke"/>
  <path fill="#fff" stroke="none" d="M124.307 163.537c-4.792 6.64 3.425 32.031 3.425 32.031l18.974-4.62s-.912-11.832-4.313-21.781c-3.49-10.214-12.827-12.918-18.086-5.63z" opacity=".7" vector-effect="non-scaling-stroke"/>
  <path stroke="none" d="M130.755 177.116c3.308 3.149 5.203 11.262 4.002 16.742l-7.028 1.71s-3.158-9.752-4.415-18.748c1.843-1.474 3.653-3.31 7.441.296z" opacity=".2" vector-effect="non-scaling-stroke"/>
  <path fill="#407bff" stroke="none" d="M89.437 147.934c-.61 9.754-2.177 19.37-4.103 28.267-1.414 6.508-3.032 12.628-4.633 18.134-3.746 12.905-7.394 22.477-8.157 25.879 6.482 1.699 30.91 8.09 44.232 11.57 21.872-43.896 18.88-71.323 18.88-71.323s-4.45-2.564-9.895-4.76a51.854 51.854 0 0 0-2.201-.84c-4.856-1.753-13.084-3.713-18.806-4.92a88.594 88.594 0 0 0-3.63-.68 122.193 122.193 0 0 0-11.687-1.327z" vector-effect="non-scaling-stroke"/>
  <path fill="#fff" stroke="none" d="M89.437 147.934c-.61 9.754-2.177 19.37-4.103 28.267-1.414 6.508-3.032 12.628-4.633 18.134-3.746 12.905-7.394 22.477-8.157 25.879 6.482 1.699 30.91 8.09 44.232 11.57 21.872-43.896 18.88-71.323 18.88-71.323s-4.45-2.564-9.895-4.76a51.854 51.854 0 0 0-2.201-.84c-4.856-1.753-13.084-3.713-18.806-4.92a88.594 88.594 0 0 0-3.63-.68 122.193 122.193 0 0 0-11.687-1.327z" opacity=".7" vector-effect="non-scaling-stroke"/>
  <path fill="#e4897b" stroke="none" d="M120.667 157.763c-2.28-4.049.238-7.543 3.282-10.462l-4.744-14.863c-2.281 5.927-7.333 16.253-13.277 17.485.565 2.593 1.666 5.315 3.666 7.84h11.073z" vector-effect="non-scaling-stroke"/>
  <path stroke="none" d="m121.139 138.488 2.81 8.793c-.86.82-1.672 1.686-2.345 2.602-2.064-1.722-3.626-6.112-2.384-8.618.62-1.25 1.381-2.35 1.919-2.777z" opacity=".2" vector-effect="non-scaling-stroke"/>
  <path fill="#407bff" stroke="none" d="M149.825 133.164c-.231 1.135-10.301-1.275-11.867-3.463-1.566-2.188 3.526-3.395 6.699-1.754 3.172 1.64 5.168 5.217 5.168 5.217z" vector-effect="non-scaling-stroke"/>
  <path stroke="none" d="M149.825 133.164c-.231 1.135-10.301-1.275-11.867-3.463-1.566-2.188 3.526-3.395 6.699-1.754 3.172 1.64 5.168 5.217 5.168 5.217z" opacity=".3" vector-effect="non-scaling-stroke"/>
  <path fill="#263238" stroke="none" d="M145.123 127.474c-.036 3.447-2.67 9.694-6.356 6.181-3.686-3.511 6.417-12.105 6.356-6.18z" vector-effect="non-scaling-stroke"/>
  <path fill="#e4897b" stroke="none" d="M139.64 141.997a25.616 25.616 0 0 1-2.024 2.96c-5.077 6.39-15.21 6.073-18.989-1.099a10.103 10.103 0 0 1-.666-1.486c-2.06-5.698.163-10.156 3.264-18.03 3.1-7.874 13.362-10.236 19.387-3.849 5.254 5.557 2.879 15.047-.971 21.504z" vector-effect="non-scaling-stroke"/>
  <path fill="#263238" stroke="none" d="M126.952 110.7s-2.208.508-4.668 2.77c-4.572 4.208-7.903 10.514-2.11 16.868 4.194-1.578 6.261-7.375 6.778-9.04v-10.597z" vector-effect="non-scaling-stroke"/>
  <path fill="#e4897b" stroke="none" d="M115.288 129.347c-.308 2.257.465 4.439 1.632 5.902 1.756 2.2 4.301 1.03 5.21-1.484.818-2.264.89-6.134-1.545-7.428-2.398-1.276-4.945.429-5.297 3.01z" vector-effect="non-scaling-stroke"/>
  <path fill="#263238" stroke="none" d="M131.915 131.795c-.292.624-.194 1.28.216 1.468.411.187.98-.169 1.27-.792.291-.624.194-1.28-.217-1.468-.41-.185-.978.169-1.269.792zm7.095 3.225c-.29.623-.193 1.28.217 1.467.411.187.98-.169 1.27-.792.291-.624.194-1.28-.217-1.468-.41-.186-.978.169-1.27.792z" vector-effect="non-scaling-stroke"/>
  <path fill="#de5753" stroke="none" d="M136.61 134.317s-.154 4.13.648 6.532c-1.55.478-3.218-.853-3.218-.853l2.57-5.68z" vector-effect="non-scaling-stroke"/>
  <path fill="#263238" stroke="none" d="M129.564 140.843c.242.152.505.294.793.425a.204.204 0 0 0 .269-.1.2.2 0 0 0-.098-.267c-2.757-1.256-3.15-3.749-3.154-3.775a.203.203 0 0 0-.23-.17.204.204 0 0 0-.172.23c.014.101.354 2.253 2.592 3.657zm1.226-12.319a.406.406 0 0 0 .41.013c1.6-.852 2.918-.157 2.931-.15a.409.409 0 0 0 .553-.161.4.4 0 0 0-.16-.546c-.07-.038-1.722-.91-3.707.149a.403.403 0 0 0-.169.546.422.422 0 0 0 .142.149zm12.409 5.472a.403.403 0 0 0 .226.061.406.406 0 0 0 .399-.412c-.04-2.232-1.621-3.212-1.688-3.267a.408.408 0 0 0-.56.13.402.402 0 0 0 .126.554c.068.038 1.276.81 1.309 2.602a.405.405 0 0 0 .188.332z" vector-effect="non-scaling-stroke"/>
  <path fill="#407bff" stroke="none" d="M144.813 129.7c-5.663-4.387-12.882-6.388-18.534-7.3-5.277-.854-9.184-.75-9.184-.75.246-3.17 4.305-10.424 6.856-10.952 3.392-.702 11.466-.093 12.835.421 2.971 1.112 8.891 5.406 9.337 7.208.923 3.78-1.31 11.374-1.31 11.374z" vector-effect="non-scaling-stroke"/>
  <path fill="#407bff" stroke="none" d="M126.275 122.398s7.505-1.676 14.062.87 9.488 9.896 9.488 9.896-.583-1.509-6.001-3.464c-6.01-2.169-11.11-2.2-17.549-7.302z" vector-effect="non-scaling-stroke"/>
  <path stroke="none" d="M136.786 111.122s-6.705 2.89-7.172 3.358c-.468.456-3.335 7.92-3.335 7.92-5.277-.853-9.184-.748-9.184-.748.246-3.171 4.305-10.425 6.856-10.952 3.393-.703 11.466-.094 12.835.422z" opacity=".1" vector-effect="non-scaling-stroke"/>
  <path stroke="none" d="M126.275 122.398s7.505-1.676 14.062.87 9.488 9.896 9.488 9.896-.583-1.509-6.001-3.464c-6.01-2.169-11.11-2.2-17.549-7.302z" opacity=".1" vector-effect="non-scaling-stroke"/>
  <path stroke="none" d="M139.64 141.997a25.616 25.616 0 0 1-2.024 2.96c-5.077 6.39-15.21 6.073-18.989-1.099-.35-4.224 1.112-11.127 4.014-15.268l1.31-1.405s-1.626 6.26-1.147 7.5c.48 1.228 3.955-.35 5.57.666 1.626 1.03 2.235 3.136 2.235 3.136l-.995.632s-1.955-3.124-2.668-3.206c-.726-.07-4.118 3.019-3.814 4.095.316 1.076-.21 1.615.819 2.083 1.03.467 3.498-1.147 3.498-1.147l1.357 1.229s-2.165 2.305-1.837 2.772c.327.457 2.492 1.31 4.037.69 1.545-.62 1.486-4 1.779-4.351.303-.35-2.376-1.51-2.376-1.51l.82-1.286s3.38 2.152 3.51 2.796c.117.655-.55 2.585.023 2.585.421 0 3.053-.62 4.879-1.872z" opacity=".3" vector-effect="non-scaling-stroke"/>
  <path fill="#fff" stroke="none" d="m142.634 121.96-.187-.72.53-.52 1.175.323a1.38 1.38 0 0 0-2.304-.699.716.716 0 0 0-.16-.066l-3.253-.923a.702.702 0 0 0-.173-.024 1.379 1.379 0 0 0-2.337-.576l1.176.323.187.72-.53.522-1.175-.324a1.38 1.38 0 0 0 2.304.699.74.74 0 0 0 .16.066l3.253.923a.769.769 0 0 0 .173.025 1.375 1.375 0 0 0 2.336.576l-1.175-.325z" vector-effect="non-scaling-stroke"/>
  <path fill="#e4897b" stroke="none" d="m160.353 233.232 8.296 2.642-6.613 7.038s-7.259-2.804-5.658-6.483l3.975-3.197zm12.485 11.803-2.484 4.478-8.315-6.593 6.605-7.036z" vector-effect="non-scaling-stroke"/>
  <path fill="#dc897c" stroke="none" d="M88.887 165.656c-3.797 4.35-7.675 8.851-11.353 13.323a194.242 194.242 0 0 0-5.35 6.75c-1.684 2.225-3.309 4.586-4.404 6.578-.262.48-.473.938-.584 1.209-.047.113-.084.217-.076.108a.38.38 0 0 1-.001-.11l-.026-.56a5.11 5.11 0 0 0-.465-1.682 5.546 5.546 0 0 0-.395-.689c-.143-.209-.33-.42-.433-.537a3.749 3.749 0 0 0-.406-.385c-.143-.115-.202-.165-.314-.243a4.145 4.145 0 0 0-.48-.28 2.804 2.804 0 0 0-.274-.112c-.092-.026-.103-.03-.131-.034-.096-.013.001.042.18.078.339.091.918.171 1.51.222 1.21.102 2.587.12 3.979.097a101.217 101.217 0 0 0 4.275-.116c5.78-.268 11.743-.71 17.655-1.061l1.276 6.285c-5.818 1.955-11.645 3.54-17.73 4.732-3.07.58-6.1 1.1-9.622 1.237-.903.024-1.82.04-2.962-.082a11.691 11.691 0 0 1-2.008-.389c-.206-.061-.398-.115-.66-.219-.25-.097-.464-.176-.786-.34a6.91 6.91 0 0 1-.96-.569c-.185-.134-.328-.23-.537-.41a8.437 8.437 0 0 1-.605-.581 5.985 5.985 0 0 1-.604-.758 6.588 6.588 0 0 1-1.14-3.15 7.337 7.337 0 0 1-.033-.567v-.188l.01-.363c.008-.254.028-.47.051-.668.091-.852.247-1.474.407-2.077a22.207 22.207 0 0 1 1.08-2.948c1.52-3.39 3.256-6.004 5.002-8.667 1.75-2.627 3.608-5.1 5.472-7.546a210.863 210.863 0 0 1 11.867-14.002l9.575 8.714z" vector-effect="non-scaling-stroke"/>
  <path fill="#407bff" stroke="none" d="M86.82 148.038c-8.088 1.282-20.78 22.153-20.78 22.153l17.563 11.413s7.027-8.591 11.894-17.993c5.304-10.241 1.122-17.127-8.676-15.573z" vector-effect="non-scaling-stroke"/>
  <path fill="#fff" stroke="none" d="M86.82 148.038c-8.088 1.282-20.78 22.153-20.78 22.153l17.563 11.413s7.027-8.591 11.894-17.993c5.304-10.241 1.122-17.127-8.676-15.573z" opacity=".7" vector-effect="non-scaling-stroke"/>
  <path fill="#407bff" stroke="none" d="m104.755 149.951 4.339-3.142 8.068 10.8 3.105-5.4 3.295 2.664s2.895 4.162 0 9.852l-6.466-5.291-6.957 4.455c-.001 0-7.407-8.636-5.384-13.938zm-9.785-16.004c7.623 9.69 5.949 23.708-3.742 31.332-9.683 7.617-23.701 5.943-31.323-3.748-5.298-6.735-6.101-15.561-2.842-22.873l12.188 15.494 11.879-1.711 4.467-11.147-12.188-15.495c7.874-1.445 16.264 1.413 21.56 8.148zm86.161 181.703c-7.624-9.69-5.95-23.707 3.742-31.33 9.682-7.618 23.7-5.944 31.323 3.747 5.297 6.734 6.1 15.56 2.841 22.873l-12.188-15.494-11.878 1.71-4.467 11.148 12.188 15.494c-7.875 1.446-16.265-1.413-21.561-8.147z" vector-effect="non-scaling-stroke"/>
  <path fill="#fff" stroke="none" d="M94.97 133.947c7.623 9.69 5.949 23.708-3.742 31.332-9.683 7.617-23.701 5.943-31.323-3.748-5.298-6.735-6.101-15.561-2.842-22.873l12.188 15.494 11.879-1.711 4.467-11.147-12.188-15.495c7.874-1.445 16.264 1.413 21.56 8.148zm86.161 181.703c-7.624-9.69-5.95-23.707 3.742-31.33 9.682-7.618 23.7-5.944 31.323 3.747 5.297 6.734 6.1 15.56 2.841 22.873l-12.188-15.494-11.878 1.71-4.467 11.148 12.188 15.494c-7.875 1.446-16.265-1.413-21.561-8.147z" opacity=".2" vector-effect="non-scaling-stroke"/>
  <path fill="#407bff" stroke="none" d="M192.373 293.863c-5.11 4.02-12.51 3.135-16.53-1.974l-94.089-119.61c-4.02-5.11-3.135-12.51 1.974-16.53 5.11-4.02 12.51-3.136 16.53 1.974l94.09 119.61c4.019 5.11 3.135 12.51-1.975 16.53z" vector-effect="non-scaling-stroke"/>
  <path fill="#fff" stroke="none" d="M192.373 293.863c-5.11 4.02-12.51 3.135-16.53-1.974l-94.089-119.61c-4.02-5.11-3.135-12.51 1.974-16.53 5.11-4.02 12.51-3.136 16.53 1.974l94.09 119.61c4.019 5.11 3.135 12.51-1.975 16.53z" opacity=".2" vector-effect="non-scaling-stroke"/>
  <path stroke="none" d="M186.862 286.857a6.047 6.047 0 0 1-8.492-1.014L88.225 171.246a6.047 6.047 0 1 1 9.506-7.478l90.144 114.597a6.047 6.047 0 0 1-1.013 8.492z" opacity=".2" vector-effect="non-scaling-stroke"/>
  <path fill="#e4897b" stroke="none" d="m89.936 189.785 6.44-5.793 3.189 10.485s-6.567 3.702-8.902.404l-.727-5.096z" vector-effect="non-scaling-stroke"/>
  <path fill="#e4897b" stroke="none" d="m103.454 183.474 2.239 8.794-6.126 2.202-3.198-10.492z" vector-effect="non-scaling-stroke"/>
  <path fill="#263238" stroke="none" d="m52.852 407.654-16.285-5.769 1.906-5.228 17.995 6.077z" vector-effect="non-scaling-stroke"/>
  <path fill="#407bff" stroke="none" d="M45.339 415.94a.204.204 0 0 1 .117-.204c.397-.187 3.904-1.822 4.923-1.202a.636.636 0 0 1 .313.548c.013.403-.128.73-.42.969-.972.797-3.412.382-4.778.064a.212.212 0 0 1-.026-.009.198.198 0 0 1-.129-.166zm.843-.09c1.875.374 3.287.337 3.833-.11a.74.74 0 0 0 .271-.64c-.004-.106-.04-.17-.12-.22a.396.396 0 0 0-.072-.034c-.636-.244-2.529.404-3.912 1.004z" vector-effect="non-scaling-stroke"/>
  <path fill="#407bff" stroke="none" d="M45.416 416.091a.2.2 0 0 1-.076-.185c.014-.097.338-2.384 1.464-3.239a1.5 1.5 0 0 1 1.138-.31c.554.076.703.36.731.588.117.968-2.004 2.743-3.056 3.171a.204.204 0 0 1-.15.001.151.151 0 0 1-.05-.025zm2.47-3.333a1.089 1.089 0 0 0-.837.23c-.738.561-1.1 1.923-1.238 2.59 1.08-.597 2.53-2 2.46-2.58-.005-.036-.014-.128-.18-.19a.852.852 0 0 0-.206-.05z" vector-effect="non-scaling-stroke"/>
  <path fill="#263238" stroke="none" d="m44.674 414.916-9.345-.302a.755.755 0 0 0-.753.559l-2.002 7.515a1.23 1.23 0 0 0 1.169 1.555c3.372.051 8.252.012 12.488.149 4.953.16 8.104-.067 13.913.12 3.513.113 4.634-3.39 3.176-3.758-6.633-1.672-10.976-1.372-16.613-5.108-.613-.407-1.295-.707-2.033-.73zm26.394-194.087 12.116 3.26-1.083 4.44-12.841-3.088zm13.493 3.628 28.61 7.713-.664 3.702-29.176-7.023zm32.607 8.77-.393 3.666-3.321-.787.75-3.666z" vector-effect="non-scaling-stroke"/>
  <path fill="#fff" stroke="none" d="m96.247 227.898-.766 3.596a.583.583 0 0 0 .437.69l6.732 1.583a.583.583 0 0 0 .703-.449l.705-3.385a.583.583 0 0 0-.418-.681l-6.67-1.796a.584.584 0 0 0-.723.442z" vector-effect="non-scaling-stroke"/>
  <path fill="#407bff" stroke="none" d="m129.042 183.046-.187-.72.529-.521 1.176.323a1.38 1.38 0 0 0-2.304-.698.716.716 0 0 0-.161-.067l-3.253-.922a.702.702 0 0 0-.173-.025 1.379 1.379 0 0 0-2.337-.576l1.176.324.187.72-.529.521-1.176-.323a1.38 1.38 0 0 0 2.304.698.74.74 0 0 0 .161.067l3.252.922a.769.769 0 0 0 .174.026 1.375 1.375 0 0 0 2.335.576l-1.174-.325zm134.203 236.919v3.708a.83.83 0 0 0 .837.828h104.726c3.872 0 6.512-3.911 5.068-7.494l-33.188-82.193-53.63.367 1.83 10.664 11.83 69.024a3.648 3.648 0 0 1-3.592 4.268h-33.043a.83.83 0 0 0-.838.828z" vector-effect="non-scaling-stroke"/>
  <path fill="#fff" stroke="none" d="M263.245 419.965v3.708a.83.83 0 0 0 .837.828h104.726c3.872 0 6.512-3.911 5.068-7.494l-20.577-50.952-12.61-31.24-53.63.366 1.831 10.664 5.144 30.018 6.685 39.006a3.648 3.648 0 0 1-3.593 4.268h-33.043a.83.83 0 0 0-.838.828z" opacity=".6" vector-effect="non-scaling-stroke"/>
  <path stroke="none" d="M297.126 419.148h68.138a2.39 2.39 0 0 0 2.207-3.309l-29.096-69.983H288.89l11.83 69.024a3.647 3.647 0 0 1-3.593 4.268z" opacity=".2" vector-effect="non-scaling-stroke"/>
  <path stroke="none" d="m287.056 335.182 1.833 10.664 5.141 30.024 59.274-9.815-12.62-31.242z" opacity=".1" vector-effect="non-scaling-stroke"/>
  <path fill="#407bff" stroke="none" d="M182.772 181.975h248.285a6.354 6.354 0 0 1 6.354 6.354v168.085a6.354 6.354 0 0 1-6.354 6.355H182.773a6.354 6.354 0 0 1-6.354-6.355V188.327a6.352 6.352 0 0 1 6.353-6.352z" vector-effect="non-scaling-stroke"/>
  <path fill="#fff" stroke="none" d="M182.772 181.975h248.285a6.354 6.354 0 0 1 6.354 6.354v168.085a6.354 6.354 0 0 1-6.354 6.355H182.773a6.354 6.354 0 0 1-6.354-6.355V188.327a6.352 6.352 0 0 1 6.353-6.352z" opacity=".7" vector-effect="non-scaling-stroke"/>
  <path stroke="none" d="M425.799 362.764h5.263a6.347 6.347 0 0 0 6.347-6.347V188.33a6.348 6.348 0 0 0-6.347-6.356h-5.263a6.349 6.349 0 0 1 6.347 6.356v168.086a6.347 6.347 0 0 1-6.347 6.347z" opacity=".2" vector-effect="non-scaling-stroke"/>
  <rect width="198.598" height="131.775" x="-99.299" y="-65.888" fill="#263238" stroke="none" rx="0" ry="0" transform="matrix(1.23 0 0 1.23 304.276 269.23)" vector-effect="non-scaling-stroke"/>
  <rect width="198.601" height="10.111" x="-99.3" y="-5.056" fill="#407bff" stroke="none" rx="0" ry="0" transform="matrix(1.23 0 0 1.23 304.276 194.409)" vector-effect="non-scaling-stroke"/>
  <path stroke="none" d="M420.703 194.845a3.038 3.038 0 1 1-6.076 0 3.038 3.038 0 0 1 6.076 0zm-10.028 0a3.038 3.038 0 1 1-6.076 0 3.038 3.038 0 0 1 6.076 0zm-10.03 0a3.038 3.038 0 1 1-6.076 0 3.038 3.038 0 0 1 6.076 0z" opacity=".2" vector-effect="non-scaling-stroke"/>
  <rect width="198.597" height="34.206" x="-99.299" y="-17.103" fill="#fff" stroke="none" opacity=".4" rx="0" ry="0" transform="matrix(1.23 0 0 1.23 304.276 221.727)" vector-effect="non-scaling-stroke"/>
  <path fill="#263238" stroke="none" d="m187.734 202.551-5.585 10.037v-10.037zm30.171 0-21.45 38.475h-14.318v-4.711l18.82-33.764z" vector-effect="non-scaling-stroke"/>
  <use xlink:href="#a" transform="matrix(1.23 0 0 1.23 228.84 221.875)" vector-effect="non-scaling-stroke"/>
  <use xlink:href="#a" transform="matrix(1.23 0 0 1.23 259.012 221.875)" vector-effect="non-scaling-stroke"/>
  <use xlink:href="#a" transform="matrix(1.23 0 0 1.23 289.196 221.875)" vector-effect="non-scaling-stroke"/>
  <use xlink:href="#a" transform="matrix(1.23 0 0 1.23 319.368 221.875)" vector-effect="non-scaling-stroke"/>
  <use xlink:href="#a" transform="matrix(1.23 0 0 1.23 349.54 221.592)" vector-effect="non-scaling-stroke"/>
  <use xlink:href="#a" transform="matrix(1.23 0 0 1.23 379.712 221.592)" vector-effect="non-scaling-stroke"/>
  <path fill="#263238" stroke="none" d="M426.415 202.428v4.711l-18.819 33.764h-16.95l21.452-38.475zm.012 28.745v9.865h-5.51z" vector-effect="non-scaling-stroke"/>
  <rect width="198.597" height="34.206" x="-99.299" y="-17.103" fill="#fff" stroke="none" opacity=".4" rx="0" ry="0" transform="matrix(1.23 0 0 1.23 304.276 329.057)" vector-effect="non-scaling-stroke"/>
  <path fill="#263238" stroke="none" d="m187.734 310.238-5.585 9.938v-9.938zm30.171 0-21.45 38.154h-14.318v-4.674l18.82-33.48z" vector-effect="non-scaling-stroke"/>
  <use xlink:href="#b" transform="matrix(1.23 0 0 1.23 228.84 329.389)" vector-effect="non-scaling-stroke"/>
  <use xlink:href="#b" transform="matrix(1.23 0 0 1.23 259.012 329.389)" vector-effect="non-scaling-stroke"/>
  <use xlink:href="#b" transform="matrix(1.23 0 0 1.23 289.196 329.389)" vector-effect="non-scaling-stroke"/>
  <use xlink:href="#b" transform="matrix(1.23 0 0 1.23 319.368 329.389)" vector-effect="non-scaling-stroke"/>
  <use xlink:href="#c" transform="matrix(1.23 0 0 1.23 349.54 329.118)" vector-effect="non-scaling-stroke"/>
  <use xlink:href="#c" transform="matrix(1.23 0 0 1.23 379.712 329.118)" vector-effect="non-scaling-stroke"/>
  <path fill="#263238" stroke="none" d="M426.415 310.115v4.674l-18.819 33.48h-16.95l21.452-38.154zm.012 28.486v9.791h-5.51z" vector-effect="non-scaling-stroke"/>
  <path fill="#fff" stroke="none" d="M263.814 281.657v3.499h-16.852v-22.47h16.402v3.5h-12.23v5.842h10.85v3.434h-10.85v6.195h12.68zm19.352 3.499-4.59-6.581c-.29.032-.579.032-.868.032h-5.072v6.549h-4.173v-22.47h9.245c5.907 0 9.565 3.017 9.565 7.994 0 3.402-1.733 5.906-4.783 7.093l5.169 7.384h-4.493zm-5.65-18.939h-4.88v8.956h4.88c3.66 0 5.554-1.67 5.554-4.495s-1.895-4.46-5.554-4.46zm29.109 18.939-4.59-6.581c-.289.032-.578.032-.867.032h-5.071v6.549h-4.174v-22.47h9.245c5.906 0 9.566 3.017 9.566 7.994 0 3.402-1.733 5.906-4.783 7.093l5.169 7.384h-4.495zm-5.649-18.939h-4.88v8.956h4.88c3.66 0 5.553-1.67 5.553-4.495s-1.894-4.46-5.553-4.46zm12.802 7.703c0-6.644 5.136-11.555 12.102-11.555s12.102 4.88 12.102 11.556c0 6.677-5.135 11.556-12.102 11.556-6.967 0-12.102-4.912-12.102-11.556zm19.997 0c0-4.59-3.37-7.896-7.896-7.896-4.527 0-7.897 3.306-7.897 7.897 0 4.59 3.37 7.896 7.897 7.896 4.526 0 7.896-3.306 7.896-7.896zm23.332 11.236-4.59-6.581c-.29.032-.578.032-.867.032h-5.073v6.549h-4.173v-22.47h9.244c5.907 0 9.566 3.017 9.566 7.994 0 3.402-1.734 5.906-4.782 7.093l5.168 7.384h-4.493zm-5.65-18.939h-4.879v8.956h4.878c3.66 0 5.554-1.67 5.554-4.495s-1.893-4.46-5.554-4.46z" vector-effect="non-scaling-stroke"/>
  <path fill="#fff" stroke="none" d="M381.202 288.695h26.453c2.556 0 4.153-2.766 2.876-4.98l-13.226-22.91c-1.278-2.213-4.473-2.213-5.75 0l-13.227 22.91c-1.279 2.213.319 4.98 2.874 4.98zm15.007-21.639-.586 11.413h-2.413l-.61-11.413h3.609zm-3.73 15.338c0-1.048.804-1.878 1.925-1.878 1.147 0 1.976.83 1.976 1.878s-.83 1.902-1.976 1.902c-1.123.001-1.926-.853-1.926-1.902zm-191.572 6.301h26.454c2.555 0 4.152-2.766 2.875-4.98l-13.226-22.91c-1.278-2.213-4.472-2.213-5.75 0l-13.226 22.91c-1.28 2.213.317 4.98 2.873 4.98zm15.006-21.639-.586 11.413h-2.413l-.61-11.413h3.609zm-3.73 15.338c0-1.048.805-1.878 1.927-1.878 1.146 0 1.975.83 1.975 1.878s-.829 1.902-1.975 1.902c-1.123.001-1.926-.853-1.926-1.902z" opacity=".4" vector-effect="non-scaling-stroke"/>
  <path fill="#fff" stroke="none" d="M207.603 188.182c33.775 33.839 120.523 109.146 218.817 103.577V188.182H207.603zm-25.46 62.193v99.893h147.068c-5.641-20.177-16.914-47.805-38.785-67.55-39.344-35.521-85.001-35.417-108.283-32.343z" opacity=".1" vector-effect="non-scaling-stroke"/>
  <path fill="#407bff" stroke="none" d="m391.515 416.937 4.384 1.918c-1.538 1.54-4.508 2.564-7.015 1.465-2.844-1.245-4.18-4.47-3.359-7.387a5.365 5.365 0 0 1 1.601-2.595l-11.899-30.426c-4.282.181-6.094-3.829-5.993-6.588l4.354 1.93a2.009 2.009 0 0 0 2.655-1.038 2.028 2.028 0 0 0-1.051-2.668l-4.388-1.917c1.538-1.54 4.506-2.562 7.014-1.464 2.844 1.245 4.356 4.4 3.535 7.319-.286 1.013-.623 1.797-1.426 2.526l11.9 30.425c3.339.188 5.917 3.898 5.817 6.657l-4.443-1.895a2.066 2.066 0 0 0-2.7 1.055c-.45 1.026-.012 2.234 1.014 2.683z" vector-effect="non-scaling-stroke"/>
  <path fill="#fff" stroke="none" d="m391.515 416.937 4.384 1.918c-1.538 1.54-4.508 2.564-7.015 1.465-2.844-1.245-4.18-4.47-3.359-7.387a5.365 5.365 0 0 1 1.601-2.595l-11.899-30.426c-4.282.181-6.094-3.829-5.993-6.588l4.354 1.93a2.009 2.009 0 0 0 2.655-1.038 2.028 2.028 0 0 0-1.051-2.668l-4.388-1.917c1.538-1.54 4.506-2.562 7.014-1.464 2.844 1.245 4.356 4.4 3.535 7.319-.286 1.013-.623 1.797-1.426 2.526l11.9 30.425c3.339.188 5.917 3.898 5.817 6.657l-4.443-1.895a2.066 2.066 0 0 0-2.7 1.055c-.45 1.026-.012 2.234 1.014 2.683z" opacity=".2" vector-effect="non-scaling-stroke"/>
  <path fill="#407bff" stroke="none" d="m357.562 390.068-4.643 1.154c.278-2.159 2.007-4.78 4.664-5.441 3.014-.75 6.04.99 7.169 3.803a5.36 5.36 0 0 1 .313 3.033l27.991 16.847c3.283-2.756 7.165-.685 8.769 1.562l-4.627 1.127a2.009 2.009 0 0 0-1.47 2.443 2.03 2.03 0 0 0 2.461 1.472l4.646-1.157c-.278 2.158-2.008 4.778-4.664 5.439-3.014.749-6.137-.83-7.266-3.641-.392-.977-.604-1.803-.412-2.87l-27.991-16.848c-2.76 1.888-7.067.523-8.67-1.725l4.676-1.207a2.066 2.066 0 0 0 1.496-2.484c-.272-1.087-1.356-1.777-2.442-1.507z" vector-effect="non-scaling-stroke"/>
  <path fill="#fff" stroke="none" d="m357.562 390.068-4.643 1.154c.278-2.159 2.007-4.78 4.664-5.441 3.014-.75 6.04.99 7.169 3.803a5.36 5.36 0 0 1 .313 3.033l27.991 16.847c3.283-2.756 7.165-.685 8.769 1.562l-4.627 1.127a2.009 2.009 0 0 0-1.47 2.443 2.03 2.03 0 0 0 2.461 1.472l4.646-1.157c-.278 2.158-2.008 4.778-4.664 5.439-3.014.749-6.137-.83-7.266-3.641-.392-.977-.604-1.803-.412-2.87l-27.991-16.848c-2.76 1.888-7.067.523-8.67-1.725l4.676-1.207a2.066 2.066 0 0 0 1.496-2.484c-.272-1.087-1.356-1.777-2.442-1.507z" opacity=".2" vector-effect="non-scaling-stroke"/>
  <path fill="#263238" stroke="none" d="M451.655 376.055v.012l.074-.197h-43.26l-10.147 26.79h43.075l-.025.074h3.567l9.127-23.9z" vector-effect="non-scaling-stroke"/>
  <path fill="#fff" stroke="none" d="M451.655 376.055v.012l.074-.197h-43.26l-10.147 26.79h43.075l-.025.074h3.567l9.127-23.9z" opacity=".2" vector-effect="non-scaling-stroke"/>
  <path stroke="none" d="m451.729 375.87-10.148 26.79h-43.26l10.148-26.79z" opacity=".4" vector-effect="non-scaling-stroke"/>
  <use xlink:href="#d" transform="matrix(1.23 0 0 1.23 383.439 401.049)" vector-effect="non-scaling-stroke"/>
  <use xlink:href="#e" opacity=".1" transform="matrix(1.23 0 0 1.23 383.439 401.049)" vector-effect="non-scaling-stroke"/>
  <use xlink:href="#d" transform="matrix(1.23 0 0 1.23 386.477 388.884)" vector-effect="non-scaling-stroke"/>
  <use xlink:href="#e" opacity=".1" transform="matrix(1.23 0 0 1.23 386.477 388.884)" vector-effect="non-scaling-stroke"/>
  <rect width="60.823" height="17.757" x="-30.412" y="-8.879" fill="#263238" stroke="none" rx="0" ry="0" transform="rotate(180 202.088 206.791) scale(1.23)" vector-effect="non-scaling-stroke"/>
  <rect width="60.823" height="17.757" x="-30.412" y="-8.879" fill="#fff" stroke="none" opacity=".2" rx="0" ry="0" transform="rotate(180 202.088 206.791) scale(1.23)" vector-effect="non-scaling-stroke"/>
  <rect width="55.875" height="2.809" x="-27.938" y="-1.405" fill="#263238" stroke="none" rx="0" ry="0" transform="rotate(180 204.622 197.123) scale(1.23)" vector-effect="non-scaling-stroke"/>
  <rect width="55.875" height="2.809" x="-27.938" y="-1.405" fill="#fff" stroke="none" opacity=".2" rx="0" ry="0" transform="rotate(180 204.622 197.123) scale(1.23)" vector-effect="non-scaling-stroke"/>
  <rect width="21.447" height="2.809" x="-10.723" y="-1.405" stroke="none" opacity=".2" rx="0" ry="0" transform="rotate(180 215.212 197.123) scale(1.23)" vector-effect="non-scaling-stroke"/>
  <rect width="55.874" height="2.809" x="-27.937" y="-1.405" fill="#263238" stroke="none" rx="0" ry="0" transform="matrix(-1.23 0 0 -1.23 413.303 384.1)" vector-effect="non-scaling-stroke"/>
  <rect width="55.874" height="2.809" x="-27.937" y="-1.405" fill="#fff" stroke="none" opacity=".2" rx="0" ry="0" transform="matrix(-1.23 0 0 -1.23 413.303 384.1)" vector-effect="non-scaling-stroke"/>
  <rect width="21.447" height="2.809" x="-10.723" y="-1.405" stroke="none" opacity=".2" rx="0" ry="0" transform="matrix(-1.23 0 0 -1.23 434.484 384.1)" vector-effect="non-scaling-stroke"/>
  <rect width="23.921" height="17.757" x="-11.96" y="-8.879" stroke="none" opacity=".2" rx="0" ry="0" transform="matrix(-1.23 0 0 -1.23 426.87 413.582)" vector-effect="non-scaling-stroke"/>
</svg>
