<svg xmlns="http://www.w3.org/2000/svg" xmlns:xlink="http://www.w3.org/1999/xlink" xml:space="preserve" width="1080" height="1080" viewBox="0 0 1080 1080">
  <defs>
    <path id="a" fill="#263238" fill-rule="nonzero" stroke="none" stroke-dasharray="none" stroke-dashoffset="0" stroke-linecap="butt" stroke-linejoin="miter" stroke-miterlimit="4" stroke-width="1" d="M-1.87 15.71h-13.77L1.87-15.71h13.77z" opacity="1" vector-effect="non-scaling-stroke"/>
    <path id="b" fill="#263238" fill-rule="nonzero" stroke="none" stroke-dasharray="none" stroke-dashoffset="0" stroke-linecap="butt" stroke-linejoin="miter" stroke-miterlimit="4" stroke-width="1" d="M-1.87 15.58h-13.77L1.87-15.58h13.77z" opacity="1" vector-effect="non-scaling-stroke"/>
    <path id="c" fill="#263238" fill-rule="nonzero" stroke="none" stroke-dasharray="none" stroke-dashoffset="0" stroke-linecap="butt" stroke-linejoin="miter" stroke-miterlimit="4" stroke-width="1" d="M-1.87 15.57h-13.77L1.87-15.57h13.77z" opacity="1" vector-effect="non-scaling-stroke"/>
    <path id="d" fill="#263238" fill-rule="nonzero" stroke="none" stroke-dasharray="none" stroke-dashoffset="0" stroke-linecap="butt" stroke-linejoin="miter" stroke-miterlimit="4" stroke-width="1" d="M-5.53-5.23 2.61 5.23l2.92-.44-8.59-10.02z" opacity="1" vector-effect="non-scaling-stroke"/>
    <path id="e" fill="#fff" fill-rule="nonzero" stroke="none" stroke-dasharray="none" stroke-dashoffset="0" stroke-linecap="butt" stroke-linejoin="miter" stroke-miterlimit="4" stroke-width="1" d="M-5.53-5.23 2.61 5.23l2.92-.44-8.59-10.02z" opacity=".1" vector-effect="non-scaling-stroke"/>
  </defs>
  <rect width="500" height=".25" x="-250" y="-.125" fill="#ebebeb" stroke="none" rx="0" ry="0" transform="matrix(2.69 0 0 2.69 540 877.146)" vector-effect="non-scaling-stroke"/>
  <rect width="33.122" height=".25" x="-16.561" y="-.125" fill="#ebebeb" stroke="none" rx="0" ry="0" transform="matrix(2.69 0 0 2.69 1033.185 920.428)" vector-effect="non-scaling-stroke"/>
  <rect width="8.693" height=".25" x="-4.346" y="-.125" fill="#ebebeb" stroke="none" rx="0" ry="0" transform="matrix(2.69 0 0 2.69 746.78 927.745)" vector-effect="non-scaling-stroke"/>
  <rect width="19.192" height=".25" x="-9.596" y="-.125" fill="#ebebeb" stroke="none" rx="0" ry="0" transform="matrix(2.69 0 0 2.69 960.124 895.465)" vector-effect="non-scaling-stroke"/>
  <rect width="43.193" height=".25" x="-21.596" y="-.125" fill="#ebebeb" stroke="none" rx="0" ry="0" transform="matrix(2.69 0 0 2.69 66.721 899.984)" vector-effect="non-scaling-stroke"/>
  <rect width="6.333" height=".25" x="-3.167" y="-.125" fill="#ebebeb" stroke="none" rx="0" ry="0" transform="matrix(2.69 0 0 2.69 157.267 899.984)" vector-effect="non-scaling-stroke"/>
  <rect width="93.676" height=".25" x="-46.838" y="-.125" fill="#ebebeb" stroke="none" rx="0" ry="0" transform="matrix(2.69 0 0 2.69 347.154 911.336)" vector-effect="non-scaling-stroke"/>
  <path fill="#ebebeb" stroke="none" d="M505.068 756.823H-14.37a15.373 15.373 0 0 1-15.354-15.355V11.316A15.373 15.373 0 0 1-14.37-4.039h519.437a15.373 15.373 0 0 1 15.351 15.355v730.152a15.373 15.373 0 0 1-15.351 15.355zM-14.37-3.363a14.698 14.698 0 0 0-14.68 14.682V741.47a14.698 14.698 0 0 0 14.682 14.682h519.437a14.695 14.695 0 0 0 14.679-14.682V11.316a14.698 14.698 0 0 0-14.68-14.682H-14.368zm1101.274 760.186H567.47a15.37 15.37 0 0 1-15.352-15.355V11.316A15.373 15.373 0 0 1 567.47-4.039h519.434a15.37 15.37 0 0 1 15.354 15.355v730.152a15.37 15.37 0 0 1-15.354 15.355zM567.47-3.363a14.695 14.695 0 0 0-14.68 14.682V741.47a14.695 14.695 0 0 0 14.68 14.682h519.434a14.698 14.698 0 0 0 14.682-14.682V11.316a14.698 14.698 0 0 0-14.682-14.682H567.47z" vector-effect="non-scaling-stroke"/>
  <path fill="#e0e0e0" stroke="none" d="M479.018 275.366v61.24l31.535 2.973c4.255 20.528 12.392 39.613 23.518 56.568l-20.255 24.466 43.306 43.309 24.468-20.258c16.952 11.128 36.04 19.265 56.568 23.52l2.97 31.536h61.243l2.973-31.538c20.527-4.258 39.618-12.39 56.568-23.518l24.468 20.258 43.309-43.309-20.256-24.468c11.126-16.953 19.26-36.038 23.519-56.566l31.537-2.972v-61.24l-31.537-2.973c-4.259-20.53-12.393-39.618-23.519-56.57l20.256-24.469-43.31-43.309-24.467 20.253c-16.95-11.12-36.041-19.258-56.568-23.516l-2.973-31.538h-61.243l-2.97 31.538c-20.527 4.256-39.616 12.393-56.568 23.516l-24.468-20.253-43.306 43.309 20.255 24.466c-11.126 16.952-19.263 36.04-23.518 56.57l-31.535 2.975zm192.733-52.29c45.792 0 82.911 37.119 82.911 82.91 0 45.79-37.12 82.91-82.911 82.91-45.79 0-82.911-37.123-82.911-82.91.002-45.791 37.122-82.91 82.91-82.91zm-296.204 326.35 17.579 14.559 31.115-31.118-14.553-17.58a117.548 117.548 0 0 0 16.896-40.645l22.658-2.134v-44.003l-22.658-2.135a117.497 117.497 0 0 0-16.898-40.644l14.553-17.582-31.116-31.117-17.579 14.552a117.752 117.752 0 0 0-40.648-16.898l-2.134-22.658-44.005.005-2.13 22.653c-14.753 3.058-28.47 8.91-40.65 16.898l-17.579-14.552-31.115 31.117 14.556 17.582a117.51 117.51 0 0 0-16.901 40.644l-22.653 2.135v44.003l22.653 2.134a117.58 117.58 0 0 0 16.9 40.645l-14.555 17.58 31.115 31.118 17.58-14.559a117.607 117.607 0 0 0 40.648 16.902l2.13 22.655h44.006l2.134-22.66c14.754-3.057 28.468-8.905 40.65-16.897zm-124.353-98.922c0-32.898 26.668-59.567 59.57-59.567 32.896 0 59.57 26.669 59.57 59.567 0 32.899-26.672 59.57-59.57 59.57-32.902 0-59.57-26.671-59.57-59.57zm319.919 396.99c17.56-3.64 33.888-10.604 48.393-20.118l20.928 17.326 37.047-37.044-17.33-20.936c9.518-14.496 16.48-30.825 20.12-48.388l26.974-2.54v-52.39l-26.975-2.539c-3.64-17.563-10.604-33.889-20.118-48.39l17.329-20.931-37.047-37.042-20.928 17.324c-14.505-9.514-30.83-16.476-48.393-20.118l-2.54-26.976H516.18l-2.54 26.976c-17.56 3.642-33.885 10.604-48.387 20.118l-20.93-17.324-37.048 37.042 17.324 20.93c-9.515 14.502-16.474 30.828-20.116 48.391l-26.975 2.54v52.39l26.975 2.54c3.642 17.562 10.601 33.89 20.116 48.392l-17.324 20.931 37.047 37.044 20.931-17.326c14.502 9.514 30.827 16.479 48.388 20.118l2.539 26.976h52.393l2.54-26.976zm-99.657-137.897c0-39.166 31.753-70.922 70.922-70.922 39.172 0 70.924 31.756 70.924 70.922 0 39.172-31.752 70.922-70.924 70.922-39.17 0-70.922-31.75-70.922-70.922z" vector-effect="non-scaling-stroke"/>
  <path fill="#f0f0f0" stroke="none" d="M947.675 416.363h57.854c5.59 0 9.081-6.05 6.289-10.892l-28.926-50.104c-2.795-4.84-9.78-4.84-12.575 0l-28.926 50.104c-2.798 4.842.697 10.892 6.284 10.892zm32.82-47.323-1.28 24.96h-5.278l-1.334-24.96h7.893zm-8.158 33.545c0-2.292 1.76-4.108 4.212-4.108 2.507 0 4.32 1.816 4.32 4.108 0 2.291-1.813 4.161-4.32 4.161-2.453 0-4.212-1.87-4.212-4.161zM101.39 190.384h57.854c5.59 0 9.081-6.05 6.29-10.892l-28.926-50.104c-2.795-4.84-9.781-4.84-12.576 0l-28.928 50.107c-2.795 4.84.696 10.889 6.286 10.889zm32.818-47.323-1.28 24.96-5.278.001-1.334-24.96h7.892zm-8.156 33.545c0-2.292 1.76-4.108 4.213-4.108 2.507 0 4.32 1.816 4.32 4.108s-1.813 4.158-4.32 4.158c-2.456 0-4.213-1.866-4.213-4.158zM256.6 806.846h57.854c5.59 0 9.082-6.05 6.29-10.892l-28.926-50.104c-2.795-4.84-9.78-4.84-12.576 0l-28.925 50.104c-2.798 4.842.694 10.892 6.283 10.892zm32.818-47.325-1.28 24.96h-5.278l-1.334-24.96h7.892zm-8.158 33.544c0-2.292 1.759-4.108 4.212-4.108 2.507 0 4.32 1.816 4.32 4.108s-1.813 4.161-4.32 4.161c-2.453 0-4.212-1.866-4.212-4.161zm517.002-58.715h57.853c5.59 0 9.082-6.05 6.29-10.891l-28.926-50.104c-2.795-4.84-9.78-4.84-12.576 0l-28.925 50.104c-2.798 4.842.696 10.891 6.284 10.891zm32.82-47.322-1.28 24.96h-5.278l-1.334-24.96h7.892zm-8.159 33.544c0-2.292 1.76-4.107 4.21-4.107 2.507 0 4.32 1.815 4.32 4.107 0 2.292-1.813 4.162-4.32 4.162-2.453-.003-4.21-1.87-4.21-4.162zm16.939-620.099H871.9a4.022 4.022 0 0 0 3.484-6.03l-16.02-27.745a4.022 4.022 0 0 0-6.964 0l-16.018 27.744a4.022 4.022 0 0 0 3.48 6.031zm18.174-26.206-.707 13.822h-2.924l-.74-13.822h4.371zm-4.516 18.575c0-1.27.973-2.276 2.332-2.276 1.388 0 2.391 1.006 2.391 2.276s-1.003 2.302-2.391 2.302a2.273 2.273 0 0 1-2.333-2.302zM40.857 524.681h32.038a4.022 4.022 0 0 0 3.484-6.031l-16.02-27.745a4.022 4.022 0 0 0-6.964 0L37.376 518.65a4.019 4.019 0 0 0 3.481 6.031zm18.174-26.206-.71 13.821h-2.924l-.74-13.821h4.374zm-4.517 18.577c0-1.27.974-2.276 2.332-2.276 1.388 0 2.392 1.006 2.392 2.276s-1.004 2.303-2.392 2.303a2.276 2.276 0 0 1-2.332-2.303zm599.755-197.365h32.037a4.022 4.022 0 0 0 3.484-6.031l-16.019-27.745a4.019 4.019 0 0 0-6.964 0l-16.02 27.745a4.019 4.019 0 0 0 3.482 6.03zm18.173-26.206-.71 13.821h-2.924l-.74-13.821h4.374zm-4.52 18.574c0-1.27.975-2.275 2.333-2.275 1.388 0 2.392 1.006 2.392 2.275s-1.004 2.303-2.392 2.303a2.276 2.276 0 0 1-2.332-2.303z" vector-effect="non-scaling-stroke"/>
  <rect width="30.937" height="20.448" x="-15.469" y="-10.224" fill="#e0e0e0" stroke="none" rx="0" ry="0" transform="matrix(2.69 0 0 2.69 350.57 113.267)" vector-effect="non-scaling-stroke"/>
  <rect width="31.004" height="3.356" x="-15.502" y="-1.678" fill="#f0f0f0" stroke="none" rx="0" ry="0" transform="matrix(2.69 0 0 2.69 350.678 90.267)" vector-effect="non-scaling-stroke"/>
  <rect width="30.937" height="20.448" x="-15.469" y="-10.224" fill="#e0e0e0" stroke="none" rx="0" ry="0" transform="matrix(2.69 0 0 2.69 168.7 317.25)" vector-effect="non-scaling-stroke"/>
  <rect width="31.004" height="3.356" x="-15.502" y="-1.678" fill="#f0f0f0" stroke="none" rx="0" ry="0" transform="matrix(2.69 0 0 2.69 168.78 294.25)" vector-effect="non-scaling-stroke"/>
  <rect width="30.937" height="20.448" x="-15.469" y="-10.224" fill="#e0e0e0" stroke="none" rx="0" ry="0" transform="matrix(2.69 0 0 2.69 157.186 708.78)" vector-effect="non-scaling-stroke"/>
  <rect width="31.004" height="3.356" x="-15.502" y="-1.678" fill="#f0f0f0" stroke="none" rx="0" ry="0" transform="matrix(2.69 0 0 2.69 157.267 685.807)" vector-effect="non-scaling-stroke"/>
  <rect width="30.937" height="20.448" x="-15.469" y="-10.224" fill="#e0e0e0" stroke="none" rx="0" ry="0" transform="matrix(2.69 0 0 2.69 797.998 567.016)" vector-effect="non-scaling-stroke"/>
  <rect width="31.004" height="3.356" x="-15.502" y="-1.678" fill="#f0f0f0" stroke="none" rx="0" ry="0" transform="matrix(2.69 0 0 2.69 798.079 544.044)" vector-effect="non-scaling-stroke"/>
  <rect width="30.937" height="20.448" x="-15.469" y="-10.224" fill="#e0e0e0" stroke="none" rx="0" ry="0" transform="matrix(2.69 0 0 2.69 980.407 638.409)" vector-effect="non-scaling-stroke"/>
  <rect width="31.004" height="3.356" x="-15.502" y="-1.678" fill="#f0f0f0" stroke="none" rx="0" ry="0" transform="matrix(2.69 0 0 2.69 980.487 615.41)" vector-effect="non-scaling-stroke"/>
  <rect width="30.937" height="20.448" x="-15.469" y="-10.224" fill="#e0e0e0" stroke="none" rx="0" ry="0" transform="matrix(2.69 0 0 2.69 949.795 227.404)" vector-effect="non-scaling-stroke"/>
  <rect width="31.004" height="3.356" x="-15.502" y="-1.678" fill="#f0f0f0" stroke="none" rx="0" ry="0" transform="matrix(2.69 0 0 2.69 949.875 204.431)" vector-effect="non-scaling-stroke"/>
  <ellipse fill="#f5f5f5" stroke="none" rx="193.889" ry="11.323" transform="matrix(2.69 0 0 2.69 540 967.826)" vector-effect="non-scaling-stroke"/>
  <path fill="#407bff" stroke="none" d="M441.775 169.405h-77.279a23.796 23.796 0 0 0-23.795 23.795v67.256a23.798 23.798 0 0 0 23.795 23.795h14.489l-5.456 21.235 21.461-21.235h46.787a23.796 23.796 0 0 0 23.796-23.795V193.2a23.801 23.801 0 0 0-23.798-23.795z" vector-effect="non-scaling-stroke"/>
  <path fill="#fff" stroke="none" d="M441.775 169.405h-77.279a23.796 23.796 0 0 0-23.795 23.795v67.256a23.798 23.798 0 0 0 23.795 23.795h14.489l-5.456 21.235 21.461-21.235h46.787a23.796 23.796 0 0 0 23.796-23.795V193.2a23.801 23.801 0 0 0-23.798-23.795z" opacity=".7" vector-effect="non-scaling-stroke"/>
  <circle r="13.797" fill="none" stroke="#407bff" stroke-miterlimit="10" stroke-width="2" transform="matrix(2.69 0 0 2.69 403.133 227.404)" vector-effect="non-scaling-stroke"/>
  <path fill="none" stroke="#407bff" stroke-linecap="round" stroke-linejoin="round" stroke-miterlimit="10" stroke-width="2" d="m385.325 227.43 11.702 12.697 23.914-25.34" vector-effect="non-scaling-stroke"/>
  <path fill="#e4897b" stroke="none" d="m306.804 954.484 18.722-.323 4.627-43.255-18.722.323z" vector-effect="non-scaling-stroke"/>
  <path stroke="none" d="m330.126 910.933-2.367 22.273-18.75.323 2.395-22.3z" opacity=".2" vector-effect="non-scaling-stroke"/>
  <path fill="#407bff" stroke="none" d="M350.67 754.805c.05 59.26-16.633 171.875-16.633 171.875l-31.32 4.86s-3.044-105.063-4.223-163.226c-.18-8.573-24.05-49.92-48.643-90.325-12.664-20.828-25.536-41.426-35.465-57.162-10.644-16.864-17.912-28.148-17.912-28.148l74.332-27.815c.003 0 79.813 132.956 79.864 189.941z" vector-effect="non-scaling-stroke"/>
  <path fill="#263238" stroke="none" d="m338.411 928.498-37.713 2.394-.673-12.131 41.426-3.255z" vector-effect="non-scaling-stroke"/>
  <path fill="#407bff" stroke="none" d="M326.42 951.544a.447.447 0 0 1 .252-.447c.87-.409 8.538-3.984 10.768-2.628.428.258.665.672.684 1.197.03.882-.28 1.595-.92 2.12-2.126 1.743-7.46.836-10.448.14l-.057-.02a.43.43 0 0 1-.28-.362zm1.842-.197c4.102.818 7.19.737 8.382-.24a1.62 1.62 0 0 0 .592-1.4c-.008-.232-.086-.375-.261-.482a.866.866 0 0 0-.159-.075c-1.388-.533-5.53.885-8.554 2.197z" vector-effect="non-scaling-stroke"/>
  <path fill="#407bff" stroke="none" d="M326.589 951.875a.438.438 0 0 1-.167-.407c.03-.212.74-5.213 3.201-7.082a3.282 3.282 0 0 1 2.488-.678c1.214.166 1.54.788 1.601 1.285.256 2.118-4.385 6-6.685 6.935a.447.447 0 0 1-.328.003.288.288 0 0 1-.11-.057zm5.396-7.29a2.383 2.383 0 0 0-1.83.503c-1.613 1.226-2.407 4.204-2.705 5.662 2.361-1.305 5.533-4.371 5.38-5.64-.011-.079-.035-.28-.396-.418a1.802 1.802 0 0 0-.449-.107z" vector-effect="non-scaling-stroke"/>
  <path fill="#263238" stroke="none" d="m324.964 949.303-20.433-.66a1.652 1.652 0 0 0-1.646 1.222l-4.38 16.436a2.69 2.69 0 0 0 2.556 3.4c7.376.113 18.047.027 27.311.326 10.833.35 17.725-.146 30.43.263 7.682.248 10.133-7.413 6.945-8.218-14.507-3.658-24.005-3.002-36.334-11.171-1.342-.89-2.835-1.547-4.449-1.598z" vector-effect="non-scaling-stroke"/>
  <path stroke="none" d="M249.854 677.99c-12.665-20.83-25.536-41.427-35.465-57.163 6.243-8.188 13.69-13.563 13.69-13.563s21.697 37.87 21.775 70.725z" opacity=".2" vector-effect="non-scaling-stroke"/>
  <path fill="#e4897b" stroke="none" d="m95.612 952.224 18.077 4.896 16.516-40.242-18.076-4.896z" vector-effect="non-scaling-stroke"/>
  <path stroke="none" d="m130.179 916.905-8.5 20.74-18.078-4.923 8.5-20.74z" opacity=".2" vector-effect="non-scaling-stroke"/>
  <path fill="#407bff" stroke="none" d="m272.697 548.821-1.517 26.01-45.084 35.984s-3.091 121.047-15.914 147.562-74.53 165.44-74.53 165.44l-33.743-10.323s53.612-163.294 59.01-172.94c5.4-9.647-22.993-150.463 15.043-217.035l96.735 25.302z" vector-effect="non-scaling-stroke"/>
  <path fill="#dc897c" stroke="none" d="M328.3 432.764c1.91 12.12 3.505 24.223 4.906 36.403 1.356 12.194 2.593 24.356 3.42 36.802l.497 8.07c.19 1.86.672 3.807 1.423 5.808 1.512 3.99 4.137 8.188 7.5 12.162 3.322 4.016 7.343 7.82 11.658 11.44 2.182 1.778 4.39 3.597 6.704 5.291 2.27 1.663 4.793 3.37 6.934 4.82l-5.5 12.902a89.249 89.249 0 0 1-9.4-3.4c-3.01-1.278-6.02-2.62-8.925-4.205-5.845-3.11-11.513-6.81-16.829-11.413-5.28-4.597-10.305-10.136-14.039-17.179-1.864-3.497-3.454-7.346-4.341-11.494-.272-1.017-.396-2.085-.584-3.131l-.382-2.58-.621-4.382-5.448-35.828a1546.82 1546.82 0 0 1-5.011-36.092l28.038-3.994z" vector-effect="non-scaling-stroke"/>
  <path fill="#407bff" stroke="none" d="M289.168 399.54c-10.48 14.523 7.49 70.052 7.49 70.052l41.495-10.106s-1.993-25.875-9.431-47.634c-7.634-22.338-28.054-28.25-39.554-12.313z" vector-effect="non-scaling-stroke"/>
  <path fill="#fff" stroke="none" d="M289.168 399.54c-10.48 14.523 7.49 70.052 7.49 70.052l41.495-10.106s-1.993-25.875-9.431-47.634c-7.634-22.338-28.054-28.25-39.554-12.313z" opacity=".7" vector-effect="non-scaling-stroke"/>
  <path stroke="none" d="M303.27 429.237c7.233 6.886 11.378 24.63 8.753 36.614l-15.371 3.741s-6.908-21.329-9.657-41.003c4.032-3.223 7.989-7.239 16.274.648z" opacity=".2" vector-effect="non-scaling-stroke"/>
  <path fill="#407bff" stroke="none" d="M212.907 365.417c-1.334 21.332-4.762 42.36-8.974 61.819-3.09 14.233-6.63 27.618-10.13 39.658-8.194 28.224-16.173 49.157-17.84 56.598a186938.87 186938.87 0 0 0 96.734 25.305c47.834-96 41.29-155.985 41.29-155.985s-9.733-5.606-21.64-10.41a113.405 113.405 0 0 0-4.814-1.838c-10.62-3.833-28.614-8.118-41.128-10.76a193.755 193.755 0 0 0-7.938-1.485 267.235 267.235 0 0 0-25.56-2.902z" vector-effect="non-scaling-stroke"/>
  <path fill="#fff" stroke="none" d="M212.907 365.417c-1.334 21.332-4.762 42.36-8.974 61.819-3.09 14.233-6.63 27.618-10.13 39.658-8.194 28.224-16.173 49.157-17.84 56.598a186938.87 186938.87 0 0 0 96.734 25.305c47.834-96 41.29-155.985 41.29-155.985s-9.733-5.606-21.64-10.41a113.405 113.405 0 0 0-4.814-1.838c-10.62-3.833-28.614-8.118-41.128-10.76a193.755 193.755 0 0 0-7.938-1.485 267.235 267.235 0 0 0-25.56-2.902z" opacity=".7" vector-effect="non-scaling-stroke"/>
  <path fill="#e4897b" stroke="none" d="M281.206 386.913c-4.987-8.856.522-16.498 7.18-22.882l-10.376-32.505c-4.99 12.963-16.038 35.545-29.038 38.24 1.237 5.671 3.645 11.624 8.018 17.147h24.216z" vector-effect="non-scaling-stroke"/>
  <path stroke="none" d="m282.239 344.758 6.146 19.23c-1.88 1.792-3.658 3.688-5.13 5.69-4.513-3.766-7.93-13.367-5.213-18.846 1.356-2.733 3.021-5.138 4.197-6.074z" opacity=".2" vector-effect="non-scaling-stroke"/>
  <path fill="#407bff" stroke="none" d="M344.975 333.115c-.506 2.48-22.529-2.79-25.953-7.575-3.424-4.785 7.712-7.424 14.65-3.836 6.937 3.589 11.303 11.411 11.303 11.411z" vector-effect="non-scaling-stroke"/>
  <path stroke="none" d="M344.975 333.115c-.506 2.48-22.529-2.79-25.953-7.575-3.424-4.785 7.712-7.424 14.65-3.836 6.937 3.589 11.303 11.411 11.303 11.411z" opacity=".3" vector-effect="non-scaling-stroke"/>
  <path fill="#263238" stroke="none" d="M334.691 320.671c-.078 7.538-5.837 21.2-13.9 13.518-8.061-7.68 14.035-26.475 13.9-13.518z" vector-effect="non-scaling-stroke"/>
  <path fill="#e4897b" stroke="none" d="M322.702 352.432a56.022 56.022 0 0 1-4.428 6.475c-11.104 13.972-33.264 13.28-41.528-2.405a22.096 22.096 0 0 1-1.458-3.25c-4.503-12.462.358-22.21 7.14-39.43 6.78-17.22 29.22-22.388 42.399-8.42 11.489 12.154 6.295 32.908-2.125 47.03z" vector-effect="non-scaling-stroke"/>
  <path fill="#263238" stroke="none" d="M294.952 283.988s-4.829 1.108-10.209 6.058c-9.999 9.2-17.283 22.991-4.616 36.888 9.173-3.452 13.695-16.13 14.825-19.77v-23.176z" vector-effect="non-scaling-stroke"/>
  <path fill="#e4897b" stroke="none" d="M269.442 324.766c-.672 4.936 1.017 9.708 3.57 12.909 3.841 4.812 9.407 2.251 11.395-3.247 1.789-4.95 1.945-13.415-3.379-16.245-5.245-2.79-10.816.939-11.586 6.583z" vector-effect="non-scaling-stroke"/>
  <path fill="#263238" stroke="none" d="M305.806 330.121c-.638 1.364-.425 2.8.473 3.21.899.408 2.142-.369 2.776-1.733.638-1.364.425-2.8-.473-3.209-.896-.406-2.139.369-2.776 1.732zm15.519 7.051c-.635 1.364-.425 2.8.473 3.209.898.409 2.141-.369 2.776-1.732.638-1.364.425-2.8-.473-3.21-.896-.406-2.139.369-2.776 1.733z" vector-effect="non-scaling-stroke"/>
  <path fill="#de5753" stroke="none" d="M316.074 335.636s-.337 9.033 1.417 14.286c-3.39 1.044-7.037-1.866-7.037-1.866l5.62-12.42z" vector-effect="non-scaling-stroke"/>
  <path fill="#263238" stroke="none" d="M300.665 349.909c.528.33 1.103.643 1.733.928a.447.447 0 0 0 .589-.218.438.438 0 0 0-.215-.584c-6.029-2.746-6.887-8.199-6.898-8.255a.444.444 0 0 0-.503-.371.447.447 0 0 0-.376.503c.032.22.775 4.925 5.67 7.997zm2.68-26.943a.888.888 0 0 0 .895.03c3.5-1.865 6.384-.345 6.413-.329a.895.895 0 0 0 1.208-.352.874.874 0 0 0-.35-1.194c-.15-.084-3.766-1.988-8.107.325a.882.882 0 0 0-.369 1.194.923.923 0 0 0 .31.326zm27.139 11.968a.882.882 0 0 0 .495.134.888.888 0 0 0 .871-.9c-.088-4.883-3.545-7.027-3.69-7.146a.893.893 0 0 0-1.224.286.88.88 0 0 0 .274 1.21c.148.084 2.79 1.773 2.862 5.69a.885.885 0 0 0 .412.726z" vector-effect="non-scaling-stroke"/>
  <path fill="#407bff" stroke="none" d="M334.013 325.54c-12.385-9.595-28.172-13.972-40.533-15.968-11.54-1.866-20.086-1.638-20.086-1.638.538-6.935 9.415-22.798 14.994-23.952 7.42-1.536 25.076-.204 28.07.92 6.5 2.432 19.446 11.823 20.42 15.764 2.02 8.266-2.865 24.874-2.865 24.874z" vector-effect="non-scaling-stroke"/>
  <path fill="#407bff" stroke="none" d="M293.472 309.57s16.412-3.667 30.752 1.902 20.751 21.643 20.751 21.643-1.275-3.3-13.125-7.577c-13.143-4.743-24.296-4.813-38.378-15.968z" vector-effect="non-scaling-stroke"/>
  <path stroke="none" d="M316.458 284.908s-14.663 6.321-15.685 7.344c-1.022.998-7.293 17.323-7.293 17.323-11.54-1.867-20.086-1.638-20.086-1.638.538-6.935 9.415-22.798 14.994-23.952 7.422-1.536 25.076-.204 28.07.923z" opacity=".1" vector-effect="non-scaling-stroke"/>
  <path stroke="none" d="M293.472 309.57s16.412-3.667 30.752 1.902 20.751 21.643 20.751 21.643-1.275-3.3-13.125-7.577c-13.143-4.743-24.296-4.813-38.378-15.968z" opacity=".1" vector-effect="non-scaling-stroke"/>
  <path stroke="none" d="M322.702 352.432a56.022 56.022 0 0 1-4.428 6.475c-11.104 13.972-33.264 13.28-41.528-2.405-.767-9.237 2.432-24.334 8.777-33.39l2.865-3.073s-3.556 13.69-2.507 16.401c1.05 2.687 8.648-.766 12.18 1.458 3.557 2.252 4.888 6.857 4.888 6.857l-2.176 1.383s-4.274-6.833-5.835-7.01c-1.587-.154-9.006 6.6-8.341 8.954.69 2.354-.46 3.532 1.791 4.555 2.252 1.022 7.65-2.507 7.65-2.507l2.968 2.687s-4.735 5.04-4.017 6.063c.716.998 5.45 2.865 8.829 1.51 3.379-1.357 3.25-8.751 3.89-9.518.664-.767-5.195-3.3-5.195-3.3l1.792-2.814s7.395 4.707 7.677 6.114c.256 1.434-1.202 5.654.051 5.654.92 0 6.677-1.355 10.669-4.094z" opacity=".3" vector-effect="non-scaling-stroke"/>
  <path fill="#fff" stroke="none" d="m329.25 308.612-.41-1.574 1.157-1.14 2.572.707a3.018 3.018 0 0 0-5.039-1.528 1.566 1.566 0 0 0-.352-.145l-7.112-2.017a1.536 1.536 0 0 0-.38-.054 3.015 3.015 0 0 0-5.11-1.259l2.57.707.41 1.574-1.157 1.14-2.572-.707a3.018 3.018 0 0 0 5.039 1.528 1.62 1.62 0 0 0 .352.145l7.113 2.018a1.681 1.681 0 0 0 .379.056 3.007 3.007 0 0 0 5.108 1.26l-2.569-.71z" vector-effect="non-scaling-stroke"/>
  <path fill="#e4897b" stroke="none" d="m367.999 551.963 18.144 5.778-14.462 15.392s-15.876-6.133-12.374-14.179l8.692-6.991zm27.306 25.813-5.434 9.792-18.184-14.419 14.445-15.386z" vector-effect="non-scaling-stroke"/>
  <path fill="#dc897c" stroke="none" d="M211.704 404.174c-8.304 9.512-16.785 19.358-24.828 29.138a424.805 424.805 0 0 0-11.702 14.763c-3.682 4.864-7.236 10.028-9.63 14.384a28.824 28.824 0 0 0-1.278 2.644c-.102.247-.183.476-.167.237a.831.831 0 0 1-.002-.243l-.057-1.22a11.177 11.177 0 0 0-1.017-3.68c-.314-.611-.524-1.02-.863-1.507-.312-.457-.721-.917-.947-1.176a8.2 8.2 0 0 0-.888-.842c-.312-.25-.44-.36-.686-.53a9.065 9.065 0 0 0-1.049-.613 6.133 6.133 0 0 0-.6-.245c-.201-.056-.226-.064-.287-.075-.21-.027.002.092.395.172.74.2 2.007.374 3.3.484 2.648.224 5.658.264 8.703.213a221.36 221.36 0 0 0 9.35-.253c12.64-.586 25.682-1.552 38.61-2.321l2.792 13.745c-12.724 4.275-25.469 7.742-38.776 10.349-6.715 1.27-13.343 2.405-21.044 2.706-1.975.051-3.979.089-6.478-.18a25.568 25.568 0 0 1-4.39-.85c-.452-.135-.871-.253-1.444-.479-.546-.213-1.014-.385-1.72-.745a15.112 15.112 0 0 1-2.097-1.243c-.407-.293-.719-.503-1.176-.896a18.45 18.45 0 0 1-1.323-1.272 13.09 13.09 0 0 1-1.321-1.657 14.408 14.408 0 0 1-2.494-6.89 16.046 16.046 0 0 1-.072-1.24l.002-.41.022-.794c.016-.557.059-1.03.11-1.461.2-1.864.54-3.225.89-4.544.719-2.533 1.534-4.551 2.362-6.447 3.325-7.414 7.12-13.13 10.94-18.954 3.828-5.746 7.89-11.153 11.966-16.503a461.155 461.155 0 0 1 25.953-30.623l20.941 19.058z" vector-effect="non-scaling-stroke"/>
  <path fill="#407bff" stroke="none" d="M207.185 365.643c-17.69 2.805-45.447 48.45-45.447 48.45l38.41 24.96s15.368-18.79 26.012-39.352c11.6-22.397 2.454-37.456-18.975-34.058z" vector-effect="non-scaling-stroke"/>
  <path fill="#fff" stroke="none" d="M207.185 365.643c-17.69 2.805-45.447 48.45-45.447 48.45l38.41 24.96s15.368-18.79 26.012-39.352c11.6-22.397 2.454-37.456-18.975-34.058z" opacity=".7" vector-effect="non-scaling-stroke"/>
  <path fill="#407bff" stroke="none" d="m246.408 369.828 9.488-6.873 17.646 23.621 6.79-11.809 7.206 5.824s6.332 9.103 0 21.547l-14.141-11.572-15.215 9.743c-.003 0-16.199-18.887-11.774-30.48zm-21.402-35.002c16.673 21.195 13.012 51.85-8.183 68.523-21.175 16.659-51.833 12.998-68.503-8.197-11.586-14.728-13.343-34.031-6.214-50.023l26.655 33.886 25.977-3.742 9.77-24.38-26.655-33.885c17.222-3.161 35.57 3.09 47.153 17.818zM413.44 732.212c-16.672-21.195-13.01-51.85 8.184-68.523 21.176-16.659 51.833-12.998 68.503 8.197 11.586 14.728 13.343 34.031 6.214 50.023l-26.655-33.886-25.977 3.742-9.77 24.38 26.655 33.885c-17.221 3.161-35.57-3.09-47.153-17.818z" vector-effect="non-scaling-stroke"/>
  <path fill="#fff" stroke="none" d="M225.006 334.826c16.673 21.195 13.012 51.85-8.183 68.523-21.175 16.659-51.833 12.998-68.503-8.197-11.586-14.728-13.343-34.031-6.214-50.023l26.655 33.886 25.977-3.742 9.77-24.38-26.655-33.885c17.222-3.161 35.57 3.09 47.153 17.818zM413.44 732.212c-16.672-21.195-13.01-51.85 8.184-68.523 21.176-16.659 51.833-12.998 68.503 8.197 11.586 14.728 13.343 34.031 6.214 50.023l-26.655-33.886-25.977 3.742-9.77 24.38 26.655 33.885c-17.221 3.161-35.57-3.09-47.153-17.818z" opacity=".2" vector-effect="non-scaling-stroke"/>
  <path fill="#407bff" stroke="none" d="M438.027 684.561c-11.174 8.791-27.36 6.857-36.15-4.317L196.105 418.657c-8.79-11.174-6.857-27.36 4.317-36.15 11.175-8.792 27.36-6.857 36.151 4.317L442.345 648.41c8.79 11.174 6.857 27.36-4.318 36.151z" vector-effect="non-scaling-stroke"/>
  <path fill="#fff" stroke="none" d="M438.027 684.561c-11.174 8.791-27.36 6.857-36.15-4.317L196.105 418.657c-8.79-11.174-6.857-27.36 4.317-36.15 11.175-8.792 27.36-6.857 36.151 4.317L442.345 648.41c8.79 11.174 6.857 27.36-4.318 36.151z" opacity=".2" vector-effect="non-scaling-stroke"/>
  <path stroke="none" d="M425.974 669.239a13.224 13.224 0 0 1-18.572-2.217L210.257 416.4a13.225 13.225 0 1 1 20.788-16.355L428.19 650.667a13.224 13.224 0 0 1-2.216 18.572z" opacity=".2" vector-effect="non-scaling-stroke"/>
  <path fill="#e4897b" stroke="none" d="m213.999 456.944 14.082-12.67 6.975 22.932s-14.362 8.095-19.467.883l-1.59-11.145z" vector-effect="non-scaling-stroke"/>
  <path fill="#e4897b" stroke="none" d="m243.562 443.142 4.896 19.233-13.396 4.815-6.994-22.945z" vector-effect="non-scaling-stroke"/>
  <path fill="#263238" stroke="none" d="M132.895 933.421 97.28 920.805l4.17-11.433 39.354 13.29z" vector-effect="non-scaling-stroke"/>
  <path fill="#407bff" stroke="none" d="M116.465 951.544a.447.447 0 0 1 .255-.447c.87-.409 8.538-3.984 10.768-2.628.428.258.665.672.684 1.197.03.882-.28 1.595-.92 2.12-2.125 1.743-7.46.836-10.448.14a.463.463 0 0 1-.057-.02.433.433 0 0 1-.282-.362zm1.843-.197c4.102.818 7.19.737 8.384-.24a1.62 1.62 0 0 0 .592-1.4c-.008-.232-.086-.375-.26-.482a.866.866 0 0 0-.16-.075c-1.39-.533-5.53.885-8.556 2.197z" vector-effect="non-scaling-stroke"/>
  <path fill="#407bff" stroke="none" d="M116.634 951.875a.438.438 0 0 1-.166-.407c.03-.212.74-5.213 3.2-7.082a3.282 3.282 0 0 1 2.489-.678c1.213.166 1.539.788 1.6 1.285.256 2.118-4.384 6-6.684 6.935a.447.447 0 0 1-.328.003.33.33 0 0 1-.11-.057zm5.4-7.29a2.38 2.38 0 0 0-1.83.503c-1.614 1.226-2.405 4.204-2.706 5.662 2.362-1.305 5.533-4.371 5.38-5.64-.01-.079-.032-.28-.396-.418a1.864 1.864 0 0 0-.449-.107z" vector-effect="non-scaling-stroke"/>
  <path fill="#263238" stroke="none" d="m115.01 949.303-20.436-.66a1.652 1.652 0 0 0-1.647 1.222l-4.379 16.436a2.69 2.69 0 0 0 2.556 3.4c7.376.113 18.047.027 27.311.326 10.833.35 17.725-.146 30.43.263 7.682.248 10.133-7.413 6.945-8.218-14.507-3.658-24.006-3.002-36.334-11.171-1.34-.89-2.832-1.547-4.446-1.598zm57.724-424.466 26.497 7.129-2.367 9.71-28.084-6.751zm29.51 7.936 62.569 16.866-1.453 8.097-63.806-15.36zm71.311 19.179-.86 8.016-7.263-1.721 1.64-8.016z" vector-effect="non-scaling-stroke"/>
  <path fill="#fff" stroke="none" d="m227.801 540.296-1.676 7.866a1.275 1.275 0 0 0 .955 1.506l14.723 3.465a1.275 1.275 0 0 0 1.538-.982l1.542-7.403a1.275 1.275 0 0 0-.915-1.49l-14.585-3.927a1.278 1.278 0 0 0-1.582.965z" vector-effect="non-scaling-stroke"/>
  <path fill="#407bff" stroke="none" d="m299.522 442.206-.409-1.574 1.157-1.14 2.572.707a3.018 3.018 0 0 0-5.039-1.528 1.566 1.566 0 0 0-.352-.145l-7.113-2.018a1.536 1.536 0 0 0-.379-.054 3.015 3.015 0 0 0-5.11-1.259l2.57.708.41 1.574-1.157 1.14-2.572-.707a3.018 3.018 0 0 0 5.039 1.528 1.62 1.62 0 0 0 .352.145l7.112 2.017a1.681 1.681 0 0 0 .38.057 3.007 3.007 0 0 0 5.108 1.259l-2.569-.71zm293.501 518.139v8.11c0 1.012.823 1.811 1.831 1.811H823.89c8.468 0 14.241-8.554 11.083-16.39L762.39 774.122l-117.286.802 4.002 23.322L674.98 949.2a7.979 7.979 0 0 1-7.858 9.334h-72.264a1.816 1.816 0 0 0-1.834 1.81z" vector-effect="non-scaling-stroke"/>
  <path fill="#fff" stroke="none" d="M593.023 960.345v8.11c0 1.012.823 1.811 1.831 1.811H823.89c8.468 0 14.241-8.554 11.083-16.39l-45.001-111.43-27.578-68.324-117.287.802 4.003 23.322 11.25 65.65 14.62 85.305a7.979 7.979 0 0 1-7.858 9.334h-72.264a1.816 1.816 0 0 0-1.834 1.81z" opacity=".6" vector-effect="non-scaling-stroke"/>
  <path stroke="none" d="M667.121 958.56H816.14a5.227 5.227 0 0 0 4.826-7.237L757.333 798.27H649.106l25.873 150.955a7.976 7.976 0 0 1-7.858 9.334z" opacity=".2" vector-effect="non-scaling-stroke"/>
  <path stroke="none" d="m645.098 774.926 4.008 23.323 11.245 65.663 129.63-21.467-27.599-68.326z" opacity=".1" vector-effect="non-scaling-stroke"/>
  <path fill="#407bff" stroke="none" d="M417.03 439.863h542.997a13.897 13.897 0 0 1 13.897 13.896v367.602a13.897 13.897 0 0 1-13.897 13.897H417.032a13.897 13.897 0 0 1-13.897-13.897V453.756a13.891 13.891 0 0 1 13.894-13.893z" vector-effect="non-scaling-stroke"/>
  <path fill="#fff" stroke="none" d="M417.03 439.863h542.997a13.897 13.897 0 0 1 13.897 13.896v367.602a13.897 13.897 0 0 1-13.897 13.897H417.032a13.897 13.897 0 0 1-13.897-13.897V453.756a13.891 13.891 0 0 1 13.894-13.893z" opacity=".7" vector-effect="non-scaling-stroke"/>
  <path stroke="none" d="M948.528 835.247h11.51a13.88 13.88 0 0 0 13.88-13.88V453.764a13.883 13.883 0 0 0-13.88-13.902h-11.51c7.666 0 13.88 6.213 13.88 13.902v367.601a13.88 13.88 0 0 1-13.88 13.88z" opacity=".2" vector-effect="non-scaling-stroke"/>
  <rect width="198.598" height="131.775" x="-99.299" y="-65.888" fill="#263238" stroke="none" rx="0" ry="0" transform="matrix(2.69 0 0 2.69 682.758 630.688)" vector-effect="non-scaling-stroke"/>
  <rect width="198.601" height="10.111" x="-99.3" y="-5.056" fill="#407bff" stroke="none" rx="0" ry="0" transform="matrix(2.69 0 0 2.69 682.758 467.056)" vector-effect="non-scaling-stroke"/>
  <path stroke="none" d="M937.383 468.01a6.644 6.644 0 1 1-13.289 0 6.644 6.644 0 0 1 13.289 0zm-21.932 0a6.644 6.644 0 1 1-13.288 0 6.644 6.644 0 0 1 13.288 0zm-21.934 0a6.644 6.644 0 1 1-13.288 0 6.644 6.644 0 0 1 13.288 0z" opacity=".2" vector-effect="non-scaling-stroke"/>
  <rect width="198.597" height="34.206" x="-99.299" y="-17.103" fill="#fff" stroke="none" opacity=".4" rx="0" ry="0" transform="matrix(2.69 0 0 2.69 682.758 526.8)" vector-effect="non-scaling-stroke"/>
  <path fill="#263238" stroke="none" d="m427.88 484.864-12.212 21.95v-21.95zm65.986 0-46.913 84.143H415.64v-10.303l41.157-73.84z" vector-effect="non-scaling-stroke"/>
  <use xlink:href="#a" transform="matrix(2.69 0 0 2.69 517.78 527.124)" vector-effect="non-scaling-stroke"/>
  <use xlink:href="#a" transform="matrix(2.69 0 0 2.69 583.766 527.124)" vector-effect="non-scaling-stroke"/>
  <use xlink:href="#a" transform="matrix(2.69 0 0 2.69 649.779 527.124)" vector-effect="non-scaling-stroke"/>
  <use xlink:href="#a" transform="matrix(2.69 0 0 2.69 715.765 527.124)" vector-effect="non-scaling-stroke"/>
  <use xlink:href="#a" transform="matrix(2.69 0 0 2.69 781.75 526.505)" vector-effect="non-scaling-stroke"/>
  <use xlink:href="#a" transform="matrix(2.69 0 0 2.69 847.736 526.505)" vector-effect="non-scaling-stroke"/>
  <path fill="#263238" stroke="none" d="M949.875 484.595v10.302l-41.157 73.84H871.65l46.914-84.142zm.027 62.865v21.574h-12.051z" vector-effect="non-scaling-stroke"/>
  <rect width="198.597" height="34.206" x="-99.299" y="-17.103" fill="#fff" stroke="none" opacity=".4" rx="0" ry="0" transform="matrix(2.69 0 0 2.69 682.758 761.53)" vector-effect="non-scaling-stroke"/>
  <path fill="#263238" stroke="none" d="m427.88 720.373-12.212 21.735v-21.735zm65.986 0-46.913 83.444H415.64v-10.222l41.157-73.222z" vector-effect="non-scaling-stroke"/>
  <use xlink:href="#b" transform="matrix(2.69 0 0 2.69 517.78 762.256)" vector-effect="non-scaling-stroke"/>
  <use xlink:href="#b" transform="matrix(2.69 0 0 2.69 583.766 762.256)" vector-effect="non-scaling-stroke"/>
  <use xlink:href="#b" transform="matrix(2.69 0 0 2.69 649.779 762.256)" vector-effect="non-scaling-stroke"/>
  <use xlink:href="#b" transform="matrix(2.69 0 0 2.69 715.765 762.256)" vector-effect="non-scaling-stroke"/>
  <use xlink:href="#c" transform="matrix(2.69 0 0 2.69 781.75 761.665)" vector-effect="non-scaling-stroke"/>
  <use xlink:href="#c" transform="matrix(2.69 0 0 2.69 847.736 761.665)" vector-effect="non-scaling-stroke"/>
  <path fill="#263238" stroke="none" d="M949.875 720.104v10.222l-41.157 73.222H871.65l46.914-83.444zm.027 62.3v21.413h-12.051z" vector-effect="non-scaling-stroke"/>
  <path fill="#fff" stroke="none" d="M594.268 657.868v7.65h-36.856v-49.14h35.872v7.653h-26.747v12.777h23.728v7.51h-23.728v13.55h27.731zm42.322 7.651-10.04-14.392c-.631.07-1.264.07-1.896.07h-11.093v14.322h-9.125v-49.141h20.218c12.918 0 20.918 6.598 20.918 17.482 0 7.44-3.79 12.917-10.459 15.513l11.303 16.148h-9.826zM624.235 624.1h-10.672v19.586h10.672c8.002 0 12.145-3.65 12.145-9.83 0-6.179-4.143-9.756-12.145-9.756zm63.661 41.419-10.039-14.392c-.632.07-1.264.07-1.896.07H664.87v14.322h-9.127v-49.141h20.218c12.917 0 20.92 6.598 20.92 17.482 0 7.44-3.79 12.917-10.459 15.513l11.303 16.148h-9.829zM675.541 624.1H664.87v19.586h10.671c8.003 0 12.145-3.65 12.145-9.83 0-6.179-4.142-9.756-12.145-9.756zm27.998 16.848c0-14.531 11.233-25.272 26.466-25.272s26.467 10.67 26.467 25.272c0 14.604-11.23 25.273-26.467 25.273-15.236 0-26.466-10.741-26.466-25.273zm43.734 0c0-10.039-7.371-17.27-17.27-17.27-9.9 0-17.27 7.231-17.27 17.27 0 10.04 7.37 17.27 17.27 17.27 9.899 0 17.27-7.23 17.27-17.27zm51.027 24.571-10.04-14.392c-.632.07-1.264.07-1.896.07H775.27v14.322h-9.127v-49.141h20.218c12.917 0 20.92 6.598 20.92 17.482 0 7.44-3.793 12.917-10.459 15.513l11.304 16.148h-9.827zM785.94 624.1h-10.668v19.586h10.668c8.003 0 12.146-3.65 12.146-9.83 0-6.179-4.14-9.756-12.146-9.756z" vector-effect="non-scaling-stroke"/>
  <path fill="#fff" stroke="none" d="M850.994 673.26h57.853c5.59 0 9.082-6.05 6.29-10.891l-28.926-50.104c-2.795-4.84-9.78-4.84-12.576 0l-28.925 50.104c-2.798 4.839.696 10.891 6.284 10.891zm32.82-47.325-1.28 24.96h-5.278l-1.334-24.96h7.892zm-8.158 33.545c0-2.292 1.759-4.108 4.212-4.108 2.507 0 4.32 1.816 4.32 4.108 0 2.291-1.813 4.158-4.32 4.158-2.456.003-4.212-1.864-4.212-4.158zM456.69 673.26h57.855c5.59 0 9.081-6.05 6.289-10.891l-28.926-50.104c-2.795-4.84-9.78-4.84-12.576 0l-28.925 50.104c-2.798 4.839.694 10.891 6.284 10.891zm32.819-47.325-1.28 24.96h-5.279l-1.334-24.96h7.893zm-8.156 33.545c0-2.292 1.759-4.108 4.212-4.108 2.507 0 4.32 1.816 4.32 4.108 0 2.291-1.813 4.158-4.32 4.158-2.456.003-4.212-1.864-4.212-4.158z" opacity=".4" vector-effect="non-scaling-stroke"/>
  <path fill="#fff" stroke="none" d="M471.335 453.439c73.865 74.005 263.582 238.7 478.551 226.522V453.44h-478.55zm-55.68 136.014V807.92H737.29c-12.336-44.127-36.99-104.55-84.821-147.732-86.045-77.684-185.898-77.456-236.814-70.734z" opacity=".1" vector-effect="non-scaling-stroke"/>
  <path fill="#407bff" stroke="none" d="m873.55 953.723 9.586 4.196c-3.362 3.368-9.858 5.606-15.34 3.204-6.22-2.723-9.144-9.776-7.347-16.156a11.734 11.734 0 0 1 3.502-5.676l-26.023-66.54c-9.366.395-13.329-8.374-13.108-14.408l9.522 4.22a4.393 4.393 0 0 0 5.808-2.27 4.436 4.436 0 0 0-2.3-5.834l-9.595-4.194c3.363-3.368 9.853-5.603 15.338-3.201 6.22 2.722 9.528 9.625 7.731 16.006-.624 2.216-1.36 3.93-3.117 5.525l26.023 66.54c7.303.411 12.941 8.524 12.724 14.558l-9.717-4.145a4.52 4.52 0 0 0-5.904 2.308c-.985 2.243-.027 4.885 2.216 5.867z" vector-effect="non-scaling-stroke"/>
  <path fill="#fff" stroke="none" d="m873.55 953.723 9.586 4.196c-3.362 3.368-9.858 5.606-15.34 3.204-6.22-2.723-9.144-9.776-7.347-16.156a11.734 11.734 0 0 1 3.502-5.676l-26.023-66.54c-9.366.395-13.329-8.374-13.108-14.408l9.522 4.22a4.393 4.393 0 0 0 5.808-2.27 4.436 4.436 0 0 0-2.3-5.834l-9.595-4.194c3.363-3.368 9.853-5.603 15.338-3.201 6.22 2.722 9.528 9.625 7.731 16.006-.624 2.216-1.36 3.93-3.117 5.525l26.023 66.54c7.303.411 12.941 8.524 12.724 14.558l-9.717-4.145a4.52 4.52 0 0 0-5.904 2.308c-.985 2.243-.027 4.885 2.216 5.867z" opacity=".2" vector-effect="non-scaling-stroke"/>
  <path fill="#407bff" stroke="none" d="m799.294 894.962-10.154 2.523c.608-4.72 4.39-10.456 10.2-11.9 6.59-1.638 13.208 2.165 15.678 8.317.858 2.136 1.105 4.299.685 6.634l61.217 36.845c7.18-6.029 15.67-1.499 19.177 3.416l-10.12 2.464a4.393 4.393 0 0 0-3.215 5.342 4.438 4.438 0 0 0 5.383 3.22l10.16-2.53c-.608 4.72-4.39 10.45-10.2 11.894-6.59 1.638-13.42-1.813-15.89-7.962-.858-2.136-1.32-3.944-.901-6.279l-61.216-36.845c-6.037 4.13-15.455 1.144-18.962-3.77l10.227-2.642a4.52 4.52 0 0 0 3.271-5.432c-.594-2.378-2.964-3.887-5.34-3.295z" vector-effect="non-scaling-stroke"/>
  <path fill="#fff" stroke="none" d="m799.294 894.962-10.154 2.523c.608-4.72 4.39-10.456 10.2-11.9 6.59-1.638 13.208 2.165 15.678 8.317.858 2.136 1.105 4.299.685 6.634l61.217 36.845c7.18-6.029 15.67-1.499 19.177 3.416l-10.12 2.464a4.393 4.393 0 0 0-3.215 5.342 4.438 4.438 0 0 0 5.383 3.22l10.16-2.53c-.608 4.72-4.39 10.45-10.2 11.894-6.59 1.638-13.42-1.813-15.89-7.962-.858-2.136-1.32-3.944-.901-6.279l-61.216-36.845c-6.037 4.13-15.455 1.144-18.962-3.77l10.227-2.642a4.52 4.52 0 0 0 3.271-5.432c-.594-2.378-2.964-3.887-5.34-3.295z" opacity=".2" vector-effect="non-scaling-stroke"/>
  <path fill="#263238" stroke="none" d="M1005.074 864.315v.027l.162-.43h-94.608L888.436 922.5h94.203l-.053.161h7.8l19.96-52.267z" vector-effect="non-scaling-stroke"/>
  <path fill="#fff" stroke="none" d="M1005.074 864.315v.027l.162-.43h-94.608L888.436 922.5h94.203l-.053.161h7.8l19.96-52.267z" opacity=".2" vector-effect="non-scaling-stroke"/>
  <path stroke="none" d="M1005.236 863.912 983.043 922.5h-94.607l22.192-58.588z" opacity=".4" vector-effect="non-scaling-stroke"/>
  <use xlink:href="#d" transform="matrix(2.69 0 0 2.69 855.887 918.976)" vector-effect="non-scaling-stroke"/>
  <use xlink:href="#e" opacity=".1" transform="matrix(2.69 0 0 2.69 855.887 918.976)" vector-effect="non-scaling-stroke"/>
  <use xlink:href="#d" transform="matrix(2.69 0 0 2.69 862.531 892.372)" vector-effect="non-scaling-stroke"/>
  <use xlink:href="#e" opacity=".1" transform="matrix(2.69 0 0 2.69 862.531 892.372)" vector-effect="non-scaling-stroke"/>
  <rect width="60.823" height="17.757" x="-30.412" y="-8.879" fill="#263238" stroke="none" rx="0" ry="0" transform="rotate(180 450.62 473.193) scale(2.69)" vector-effect="non-scaling-stroke"/>
  <rect width="60.823" height="17.757" x="-30.412" y="-8.879" fill="#fff" stroke="none" opacity=".2" rx="0" ry="0" transform="rotate(180 450.62 473.193) scale(2.69)" vector-effect="non-scaling-stroke"/>
  <rect width="55.875" height="2.809" x="-27.938" y="-1.405" fill="#263238" stroke="none" rx="0" ry="0" transform="matrix(-2.69 0 0 -2.69 912.323 904.1)" vector-effect="non-scaling-stroke"/>
  <rect width="55.875" height="2.809" x="-27.938" y="-1.405" fill="#fff" stroke="none" opacity=".2" rx="0" ry="0" transform="matrix(-2.69 0 0 -2.69 912.323 904.1)" vector-effect="non-scaling-stroke"/>
  <rect width="21.447" height="2.809" x="-10.723" y="-1.405" stroke="none" opacity=".2" rx="0" ry="0" transform="matrix(-2.69 0 0 -2.69 958.645 904.1)" vector-effect="non-scaling-stroke"/>
  <rect width="55.874" height="2.809" x="-27.937" y="-1.405" fill="#263238" stroke="none" rx="0" ry="0" transform="rotate(180 460.6 440.954) scale(2.69)" vector-effect="non-scaling-stroke"/>
  <rect width="55.874" height="2.809" x="-27.937" y="-1.405" fill="#fff" stroke="none" opacity=".2" rx="0" ry="0" transform="rotate(180 460.6 440.954) scale(2.69)" vector-effect="non-scaling-stroke"/>
  <rect width="21.447" height="2.809" x="-10.723" y="-1.405" stroke="none" opacity=".2" rx="0" ry="0" transform="rotate(180 483.76 440.954) scale(2.69)" vector-effect="non-scaling-stroke"/>
  <rect width="23.921" height="17.757" x="-11.96" y="-8.879" stroke="none" opacity=".2" rx="0" ry="0" transform="matrix(-2.69 0 0 -2.69 950.87 946.387)" vector-effect="non-scaling-stroke"/>
</svg>
